<?xml version="1.0" encoding="utf-8"?>
<!-- Generator: Adobe Illustrator 19.0.0, SVG Export Plug-In . SVG Version: 6.00 Build 0)  -->
<svg version="1.1" id="Layer_1" xmlns="http://www.w3.org/2000/svg" xmlns:xlink="http://www.w3.org/1999/xlink" x="0px" y="0px"
	 viewBox="20 -220 1000 1000" style="enable-background:new 20 -220 1000 1000;" xml:space="preserve">
<style type="text/css">
	.st0{fill:#D8D9D9;}
	.st1{fill:#6E6E6E;}
	.st2{fill:#9B9B9B;}
	.st3{fill:url(#SVGID_1_);}
	.st4{fill:url(#SVGID_2_);}
	.st5{fill:url(#SVGID_3_);}
	.st6{fill:#FFFFFF;}
	.st7{fill:url(#SVGID_4_);}
	.st8{fill:#B0B1B2;}
	.st9{fill:url(#SVGID_5_);}
	.st10{fill:url(#SVGID_6_);}
	.st11{fill:url(#SVGID_7_);}
	.st12{fill:url(#SVGID_8_);}
	.st13{fill:#1A1A18;}
	.st14{fill:url(#SVGID_9_);}
	.st15{fill:#868685;}
	.st16{fill:#3B3A39;}
	.st17{fill:#C5C5C6;}
	.st18{fill:url(#SVGID_10_);}
	.st19{fill:#575656;}
	.st20{fill:url(#SVGID_11_);}
</style>
<g>
	<path d="M449.7-133.1c-23.2,2.1-45.5,5.6-68.7,9.4c-42.6,6.9-103.6-119.9-180.8-88.9c-62.2,24.9-68.8,107.3-34.5,190.2
		c9.7,23.3,8.1,37.5-2.6,49.2C124.8,69.3,91.1,120.1,67.7,165C22.3,252,62,322.3,123,392.6c56.3,64.6,130.1,130.6,182.8,176
		c51,43.8,181.7,153.3,206.5,211.4c24.8-58.1,155.5-167.6,206.5-211.4c52.7-45.3,126.7-111.3,182.8-176
		c61-70.3,100.7-140.6,55.3-227.6c-23.4-44.9-57-95.7-95.3-138.2c-10.7-11.9-12.3-25.9-2.6-49.2c34.3-82.9,27.5-165.3-34.5-190.2
		c-77.2-31-138.2,96-180.8,88.9c-23.2-3.7-45.5-7.3-68.7-9.4C532.5-136.9,492-136.9,449.7-133.1z"/>
	<path class="st0" d="M510.4,515.3c-42.9,0-85.8-14.7-135.5-57.2C356,442,340,424.5,329.5,407.7c-10.1-16.3-14.7-31.9-11.3-44.6
		c1.9-6.6,5.8-12.6,12.4-17.6c18.8-11.8,34-28.6,49.4-45.7c14.3-15.8,28.7-31.8,46.3-43.9c7.5-5.3,13.8-7,18.8-6.4
		c4.2,0.7,7.7,3.2,10.3,7c2.9,4.1,4.9,9.7,6.2,16c10.9,56.1-40.4,107.3-40.4,147.6c0,5.6,1.5,10.7,3.8,15.6
		c-0.3,2.1-0.4,4.2-0.4,6.4c0,0.5,0,1.2,0,1.7c-9.9-5.8-19.3-12.6-27.5-19.7c-2.4-2.4-4.8-4.8-7.5-6.9c-2.3-2.3-4.5-4.5-6.6-6.9
		c-13.9-15.6-31.9-43.3-12.6-61.7c-25.3,13.6-6.4,51.2,7.4,66.6c5.2,5.7,10.5,11,16.1,16c11.6,10.1,23.2,18.5,34.5,25.7
		c0.8,1.6,1.7,3,2.8,4.5c4.5,6.2,11,11.9,18.7,16.7c9.4,6,19.1,10.2,28.9,13c10.3,3,20.9,4.4,31.4,4.4c0.5,0,1.1,0,1.7,0l0,0h0.1
		l0,0h0.1l0,0c0.5,0,1.1,0,1.7,0c10.5,0,21-1.5,31.4-4.4c9.8-2.8,19.6-7.1,28.9-13c7.5-4.8,14-10.5,18.7-16.7c1.1-1.5,2-2.9,2.8-4.5
		c11.4-7.1,22.9-15.6,34.5-25.7c5.6-4.9,11-10.2,16.1-16c13.8-15.4,32.7-52.8,7.4-66.6c19.5,18.4,1.5,46.1-12.6,61.7
		c-2.1,2.3-4.2,4.6-6.6,6.9c-2.6,2.3-5.2,4.5-7.5,6.9c-8.2,7.1-17.6,13.9-27.5,19.7c0-0.5,0-1.2,0-1.7c0-2.1-0.1-4.2-0.4-6.4
		c2.5-4.9,3.8-10.1,3.8-15.6c0-40.2-51.2-91.5-40.4-147.6c1.2-6.2,3.3-11.8,6.2-16c2.6-3.8,6.1-6.4,10.3-7
		c4.9-0.7,11.1,1.1,18.8,6.4c17.6,12.2,32,28.2,46.3,43.9c15.5,17.1,30.6,33.9,49.4,45.7c6.6,5,10.7,11,12.4,17.6
		c3.4,12.7-1.2,28.3-11.3,44.6c-10.3,16.8-26.5,34.3-45.4,50.4c-49.9,42.5-92.6,57.2-135.5,57.2c-0.7,0-1.2,0-1.9,0l0,0
		C511.6,515.3,511.1,515.3,510.4,515.3z"/>
	<path class="st1" d="M423.1,406.5c-1.1,4.6-1.7,9.3-1.7,13.6c0,5.6,1.3,10.7,3.8,15.6c-0.3,2.1-0.4,4.2-0.4,6.4c0,0.5,0,1.2,0,1.7
		c-9.9-5.8-19.3-12.6-27.5-19.7c-2.4-2.4-4.8-4.8-7.5-6.9c-2.3-2.3-4.5-4.5-6.6-6.9c-9.3-10.5-20.5-26.2-21-41.2
		C375.4,390.5,396.7,402.1,423.1,406.5L423.1,406.5z M601.5,406.5c1.1,4.6,1.7,9.3,1.7,13.6c0,5.6-1.3,10.7-3.8,15.6
		c0.3,2.1,0.4,4.2,0.4,6.4c0,0.5,0,1.2,0,1.7c9.9-5.8,19.3-12.6,27.5-19.7c2.4-2.4,4.8-4.8,7.5-6.9c2.3-2.3,4.5-4.5,6.6-6.9
		c9.3-10.5,20.5-26.2,21-41.2C649.1,390.5,627.8,402.1,601.5,406.5z"/>
	<path class="st2" d="M374.8,458.1c-18.9-16.1-34.9-33.6-45.4-50.4c-3.2-5-5.7-10.1-7.7-15c12.8,16.4,25.3,11.6,37.3-15
		c2.6,14,11.6,29,19.1,37.3c5.2,5.7,10.5,11,16.1,16c11.6,10.1,23,18.5,34.4,25.7c0.8,1.6,1.7,3,2.8,4.5c4.5,6.2,11,11.9,18.7,16.7
		c9.4,6,19.1,10.2,28.9,13c11.8,3.4,21.3,4.2,33.2,4.4c11.3,0.1,22.5-1.3,33.2-4.4c9.8-2.8,19.6-7.1,28.9-13
		c7.5-4.8,14-10.5,18.7-16.7c1.1-1.5,2-3,2.8-4.5c11.4-7.1,22.9-15.6,34.4-25.7c5.6-4.9,11-10.2,16.1-16
		c7.4-8.3,16.5-23.3,19.1-37.3c11.9,26.6,24.4,31.4,37.3,15c-2,4.9-4.6,9.8-7.7,15c-10.3,16.8-26.5,34.3-45.4,50.4
		c-40.5,34.5-83.9,57.4-137.5,57.2C457.9,515,415.9,493.2,374.8,458.1z"/>
	
		<linearGradient id="SVGID_1_" gradientUnits="userSpaceOnUse" x1="511.5075" y1="73.0335" x2="513.4459" y2="184.0773" gradientTransform="matrix(1 0 0 -1 0 560)">
		<stop  offset="0" style="stop-color:#000000"/>
		<stop  offset="1" style="stop-color:#3B3A39"/>
	</linearGradient>
	<path class="st3" d="M451.9,474.9c-13.8-8.7-23.7-20-23.7-32.8c0-5.6,1.1-11.5,2.9-17.3c0,0.7,0,1.5,0,2.1c0,16.8,6.8,32.2,20.3,42
		c11.3,8.1,29.4,7.8,27.4-10.1c-1.5-13.1-9.5-33.9-25.4-22c-1.1,0.8-2.3,1.6-3,2.3c-2.1-6.1-2.9-13.5-3-20.6
		c-0.5-35.7,35.9-49,65-48.7s65.5,12.3,65,48.7c-0.1,7.3-0.9,14.6-3,20.6c-0.9-0.5-2-1.3-3-2.3c-15.9-11.9-24,8.9-25.4,22
		c-2,17.9,16.1,18.1,27.4,10.1c13.5-9.8,20.3-25.1,20.3-42c0-0.7,0-1.5,0-2.1c1.9,6,2.9,11.8,2.9,17.3c0,12.8-9.9,24.2-23.7,32.8
		c-18.4,11.5-38.8,17.1-60.4,16.8C490.2,491.6,470.9,486.8,451.9,474.9z"/>
	
		<linearGradient id="SVGID_2_" gradientUnits="userSpaceOnUse" x1="504.0347" y1="927.8068" x2="514.8691" y2="307.1071" gradientTransform="matrix(1 0 0 -1 0 560)">
		<stop  offset="0" style="stop-color:#868685"/>
		<stop  offset="1" style="stop-color:#575656"/>
	</linearGradient>
	<path class="st4" d="M450.2-126c-22.9,2-40,4.4-62.9,8.5c-19.2,3.4,3.8,11,8.6,13.1c-51.1,6.4-126.8-129.2-193.1-99.1
		C141-175.5,153-84.4,177.6-27.6c13.8,31.8,12.6,52.7-1.1,67.9c1.9-33.8-57.4,55.3-64.2,65c43.1-16.9,90.4-18.8,133.7-20.5
		c45.3-1.9,86.2-3.4,112.4-22.1c42.2-29.9,71.7-43.5,91.9-46.1C472.9,13,490.1,1,512.3,0.4c22.2-0.5,41.6,12.8,62.1,16.1
		c20.1,2.5,49.8,16,91.9,46.1c26.3,18.7,67.1,20.3,112.4,22.1c43.3,1.7,90.5,3.6,133.7,20.5c-6.8-9.7-66-98.7-64.2-65
		C834.4,25.1,833.2,4,847-27.6c24.6-56.8,36.5-147.8-25.3-175.9c-66.3-30-142,105.5-193.1,99.1c4.6-2,27.8-9.5,8.6-13.1
		c-22.9-4.1-40-6.5-62.9-8.5C533.3-129.5,491.2-129.5,450.2-126z"/>
	
		<linearGradient id="SVGID_3_" gradientUnits="userSpaceOnUse" x1="512.3914" y1="7328.3589" x2="512.3914" y2="-7195.6855" gradientTransform="matrix(1 0 0 -1 0 560)">
		<stop  offset="0" style="stop-color:#ECECEC"/>
		<stop  offset="1" style="stop-color:#9B9B9B"/>
	</linearGradient>
	<path class="st5" d="M450.2-126c-22.9,2-40,4.4-62.9,8.5c-14.2,2.5-5.4,7.3,2.1,10.5c-3.3-4.1,3.2-7.9,11.4-9.7
		c36-7.1,73.9-9.3,110.9-9.3l0,0h1.1l0,0c37.2,0,74.9,2.1,110.9,9.3c8.3,1.7,14.7,5.7,11.4,9.7c7.5-3.2,16.4-7.9,2.3-10.5
		c-22.9-4.1-40-6.5-62.9-8.5C533.3-129.5,491.2-129.5,450.2-126L450.2-126z M393.2-104.3c-4.5,1.6-9,2.6-13.8,3.2
		c-52.3-9.1-119.1-111.7-169-87.1C144.7-155.7,182.3-45.2,205.6-3l-5.3,3.7c-2.1,1.3-4,2.6-5.8,3.7c-1.5,0.9-2.4,2.5-2.6,4.4
		c-0.1,0.8-0.1,1.6,0,2.3c0,0.5,0.1,0.9,0.3,1.5c-1.6,1.2-3.4,1.9-5,2c0.7-11.5-2.4-25.1-9.7-42c-24.5-56.9-36.5-148,25.4-176
		C267.8-233,342.1-102.8,393.2-104.3L393.2-104.3z M837.5,14.6c-1.7,0-3.7-0.3-5.4-1.2c0.4-0.7,0.7-1.6,0.8-2.4c0.1-0.7,0-1.5,0-2.3
		c-0.3-1.7-1.2-3.4-2.6-4.4c-3.2-2-7-4.5-11.1-7.3c23.3-42.1,61-152.9-4.6-185.3c-49.5-24.5-115.5,76.1-167.7,86.8
		c-5.2-0.4-10.3-1.5-15.2-2.9c51.1,1.6,125.2-128.8,190.5-99.3c61.8,28.1,49.9,119.1,25.3,175.9C839.7-10.7,836.7,3.1,837.5,14.6z"
		/>
	<path class="st6" d="M158.6-98.6c3.7,12.8,8.9-5,11.1-26.7c4-40.5,18.9-57,34.7-67.6c28.6-19.3,79.8,15.5,115.5,43.3
		c-38-33.8-79.1-71.1-117.1-53.9C163.4-185.7,154-142.4,158.6-98.6L158.6-98.6z M865.9-98.6c-3.7,12.8-8.9-5-11.1-26.7
		c-4-40.5-18.9-57-34.7-67.6c-28.6-19.3-79.8,15.5-115.5,43.3c37.9-33.8,79-71.1,117-53.7C861.2-185.7,870.6-142.4,865.9-98.6z"/>
	<path class="st6" d="M470.6,458.6c0.1,0.4,0.3,0.8,0.3,1.3c1.2,11-10.7,7.5-16.5,3.3c-13.1-9.4-17.9-23.8-17.1-39
		c0.7,13.1,5.7,25.3,17.1,33.6C459.4,461.3,468.6,464.3,470.6,458.6L470.6,458.6z M554,458.6c-0.1,0.4-0.3,0.8-0.3,1.3
		c-1.2,11,10.7,7.5,16.5,3.3c13.1-9.4,17.9-23.8,17.1-39c-0.7,13.1-5.7,25.3-17.1,33.6C565.2,461.3,556,464.3,554,458.6L554,458.6z
		 M514.1,422.5c-0.5,0-1.2,0-1.7,0l0,0h-0.1l0,0h-0.1l0,0c-0.5,0-1.1,0-1.7,0c-29.5,0-53.5-9.7-53.5-5.7c0,3.8,24,18,53.5,18
		c0.7,0,1.2,0,1.9,0l0,0c0.7,0,1.2,0,1.9,0c29.5,0,53.5-14.2,53.5-18C567.6,412.9,543.7,422.5,514.1,422.5z"/>
	<path d="M270.2-33.8c0,0,0-0.1-0.1-0.1C270.2-33.7,270.2-33.4,270.2-33.8z"/>
	<path d="M325.9-70.9c0.1,0-0.1,0-0.3,0h0.1H325.9z"/>
	<path d="M326.2-91.5L326.2-91.5L326.2-91.5z"/>
	<path d="M205.6-2.7c-23.3-42.1-61-152.9,4.6-185.3c54.1-26.7,128.3,96.1,182,87.2c-7.9,12.8-30.6,11.3-39.8,10.2
		c-11.6-1.3-32.7-8.7-23.4,7c15.8,27-24.9,21.3-39,24c-12.2,2.3-24.5,5.2-36.5,8.2c4.1,0.5,7.7,1.7,10.7,3.2
		c4.4,2.1,7.7,4.9,9.7,7.5c2.3,2.8,3.4,5.3,3.3,7.4c-0.3,3.2-2.4,5-7.1,5.3c-15.5,0.8-38.6,16.5-56.8,28.7c-4.6,3.2-9,6.1-13,8.6
		c2.4,0.5,4.4,1.1,6.4,1.6c2.8,0.9,5.3,1.9,8.2,3c2.1,0.9,4,2.1,5.3,3.4c1.1,1.2,1.7,2.4,1.9,3.8c0.3,1.6-0.1,3.2-1.3,4.6
		c-0.8,1.1-2,2-3.7,2.8c-10.1,4.6-14.8,12.2-19.5,19.3c-4.9,7.7-18.3,21-32.7,15.6c15.6-2.1,21.2-10.7,26.9-19.6
		c5.2-8.1,10.6-16.4,22.4-21.8l0.4-0.3c-0.5-0.4-1.3-0.9-2.3-1.3c-2.8-1.2-5.2-2.1-7.5-2.9c-2.5-0.8-5.2-1.5-8.7-2
		c-1.5-0.3-2.5-1.1-3.2-2.3c-0.4-0.7-0.7-1.6-0.8-2.4c-0.1-0.7,0-1.5,0-2.3c0.3-1.7,1.2-3.4,2.6-4.4C197.7,2.6,201.5,0,205.6-2.7z"
		/>
	
		<linearGradient id="SVGID_4_" gradientUnits="userSpaceOnUse" x1="322.6079" y1="576.2272" x2="212.1638" y2="712.6143" gradientTransform="matrix(1 0 0 -1 0 560)">
		<stop  offset="0" style="stop-color:#000000"/>
		<stop  offset="1" style="stop-color:#3B3A39"/>
	</linearGradient>
	<path class="st7" d="M373.6-96.4c-67.6-16.7-118.9-109.2-165.4-79.8C166.5-150,180.5-69.2,213.3-8c18.3-12.3,39.4-26.1,56.1-27.1
		l-0.8-1.1c-1.5-2-4-4-7.3-5.6c-2.9-1.3-6.4-2.4-10.3-2.8c-7.9-0.8-9.4-11.3,0.3-13.6c12.2-3,24.9-6.1,37.6-8.5
		c23.8-4.4,44.7,4.6,34.4-13.1c-6.1-10.5-0.5-23.4,8.1-21.4C345.9-97.6,360.1-95.4,373.6-96.4z"/>
	<path class="st0" d="M482,44.9L482,44.9v-0.3c-3.2-14.4-12.2-23-31-20.8c-19.1,2.4-47.6,15.6-88.7,44.7
		C334.4,88.5,292.6,90,246.3,91.9c-80.2,3.2-138.2,14.3-158.7,54c-15.8,30.7-12.6,83.8,43.1,146.8c10.9,12.3,11.1,6.8,11.8-3.4
		c1.1-16,8.9-34.8,25.5-56.9c24.4-32.2,56.3-58.5,94.8-76.6c36.7-17.3,79.3-27.3,127.2-28.2c14.7-0.3,11.1-11,7.9-23.3
		c-1.2-4.9-3-9.7-5.3-14.7c-8.6-18.1,2.5-21.3,15.5-7.8c9,9.4,16,20,22.2,31.9c6.1,11.8,11.4,24.9,17.2,39.6
		c6.1,15.4,6.6,17.2,12.7,1.6c11.4-28.9,23.4-67.5,23.2-95.8C483.4,53.9,482.9,49.1,482,44.9L482,44.9z M542.6,44.9L542.6,44.9v-0.3
		c3.2-14.4,12.2-23,31-20.8c19.1,2.4,47.6,15.6,88.7,44.7C690.2,88.5,732,90,778.3,91.9c80.2,3.2,138.2,14.3,158.7,54
		c15.8,30.7,12.6,83.8-43.1,146.8c-10.9,12.3-11.1,6.8-11.8-3.4c-1.1-16-8.9-34.8-25.5-56.9c-24.4-32.2-56.3-58.5-94.8-76.6
		c-36.7-17.3-79.3-27.3-127.2-28.2c-14.7-0.3-11.1-11-7.9-23.3c1.2-4.9,3-9.7,5.3-14.7c8.6-18.1-2.5-21.3-15.5-7.8
		c-9,9.4-16,20-22.2,31.9c-6.1,11.8-11.4,24.9-17.2,39.6c-6.1,15.4-6.6,17.2-12.7,1.6c-11.4-28.9-23.4-67.5-23.2-95.8
		C541.1,53.9,541.7,49.1,542.6,44.9z"/>
	<path class="st8" d="M79.5,176.2c14.4,38.5,37.1,74.3,68.2,91.1c-3,7.9-4.8,15.2-5.2,22.1c-0.7,10.1-0.8,15.8-11.8,3.4
		C90.2,247.1,77.5,206.8,79.5,176.2L79.5,176.2z M945.1,176.2c-14.4,38.5-37.1,74.3-68.2,91.1c3,7.9,4.8,15.2,5.2,22.1
		c0.7,10.1,0.8,15.8,11.8,3.4C934.4,247.1,947.1,206.8,945.1,176.2z"/>
	
		<linearGradient id="SVGID_5_" gradientUnits="userSpaceOnUse" x1="512.4244" y1="555.7133" x2="512.4244" y2="154.2948" gradientTransform="matrix(1 0 0 -1 0 560)">
		<stop  offset="0" style="stop-color:#3B3A39"/>
		<stop  offset="1" style="stop-color:#000000"/>
	</linearGradient>
	<path class="st9" d="M535.7,44.1c-0.9,4.6-1.5,9.5-1.5,15c-0.3,29.4,12,69.1,23.7,98.6c9.1,23,17.5,18.8,25.7-1.6
		c5.7-14.4,11-27.3,16.9-38.8c5.8-11.4,12.4-21.4,20.9-30.2c3.7-3.8,8.6-9.3,4.4-0.4c-2.5,5.3-4.4,10.6-5.8,16
		c-4.1,16.3-6.6,31.9,14.6,32.3c46.9,0.9,88.7,10.6,124.4,27.5c37.5,17.7,68.6,43.1,92.3,74.5c15.8,20.8,23,38.4,24,52.9
		c1.1,14.7-4.2,26.6-13.5,35.9c-9.5,9.7-23.4,16.7-38.9,21.6c-33.8,10.6-75.2,10.5-99.9,3.4c-30.7-8.9-51.8-32-73.2-55.7
		c-14.6-16-29.3-32.3-47.5-45c-22.6-15.8-40.6-6.5-45.9,21.2c-11.9,49.9,27.5,95.7,27.3,118.2c-0.1,7.8-12-13.5-29.9-22.1
		c-13.9-6.8-68.4-6.8-82.3,0c-17.9,8.6-29.8,29.9-29.9,22.1c-0.3-22.5,39.2-68.3,27.3-118.2c-5.3-27.7-23.3-36.9-45.9-21.2
		c-18.3,12.7-33,29-47.5,45c-21.6,23.8-42.5,47-73.2,55.7c-24.8,7.1-66.2,7.1-99.9-3.4c-15.6-4.9-29.4-11.9-38.9-21.6
		c-9.3-9.4-14.6-21.2-13.5-35.9c1.1-14.7,8.3-32.2,24-52.9c23.7-31.4,54.7-56.8,92.3-74.5c35.9-16.9,77.6-26.6,124.4-27.5
		c21.3-0.4,18.7-16.1,14.6-32.3c-1.3-5.4-3.3-10.7-5.8-16c-4.2-9,0.7-3.4,4.4,0.4c8.5,8.9,15.1,18.9,20.9,30.2
		c6,11.5,11.3,24.5,16.9,38.8c8.1,20.4,16.5,24.6,25.7,1.6c11.6-29.5,24-69.1,23.7-98.6c0-5.3-0.5-10.3-1.5-15
		c0.4-17.1,5.6-36.3,23.4-36.3C530.2,7.8,535.3,27,535.7,44.1z"/>
	
		<linearGradient id="SVGID_6_" gradientUnits="userSpaceOnUse" x1="511.1947" y1="108.0747" x2="519.3892" y2="577.5409" gradientTransform="matrix(1 0 0 -1 0 560)">
		<stop  offset="0" style="stop-color:#6E6E6E"/>
		<stop  offset="1" style="stop-color:#1A1A18"/>
	</linearGradient>
	<path class="st10" d="M558.7,261.4c-1.1,2.9-2,6.1-2.6,9.7c-11.9,49.9,27.5,95.7,27.3,118.2c-0.1,7.8-12-13.5-29.9-22.1
		c-13.9-6.8-68.4-6.8-82.3,0c-17.9,8.6-29.8,29.9-29.9,22.1c-0.3-22.5,39.2-68.3,27.3-118.2c-0.5-2.9-1.3-5.7-2.1-8.3
		c4.4-109.2,25-221.2,45.9-221.2C532.9,41.6,553.6,152.2,558.7,261.4z"/>
	<path d="M754.4-33.8c0,0,0-0.1,0.1-0.1C754.4-33.7,754.4-33.4,754.4-33.8z"/>
	<path d="M698.6-70.9c-0.1,0,0.1,0,0.3,0h-0.1H698.6z"/>
	<path d="M698.4-91.5L698.4-91.5L698.4-91.5z"/>
	<path d="M819-2.7c23.3-42.1,61-152.9-4.6-185.3c-54.1-26.7-128.1,96.1-182,87.2c7.9,12.8,30.6,11.3,39.8,10.2
		c11.6-1.3,32.7-8.7,23.4,7c-15.8,27,24.9,21.3,39,24c12.2,2.3,24.5,5.2,36.5,8.2c-4.1,0.5-7.7,1.7-10.7,3.2
		c-4.4,2.1-7.7,4.9-9.7,7.5c-2.3,2.8-3.4,5.3-3.3,7.4c0.3,3.2,2.4,5,7.1,5.3c15.5,0.8,38.6,16.5,56.8,28.7c4.6,3.2,9,6.1,13,8.6
		c-2.4,0.5-4.4,1.1-6.4,1.6c-2.8,0.9-5.3,1.9-8.2,3c-2.1,0.9-4,2.1-5.3,3.4c-1.1,1.2-1.7,2.4-1.9,3.8c-0.3,1.6,0.1,3.2,1.3,4.6
		c0.8,1.1,2,2,3.7,2.8c10.1,4.6,14.8,12.2,19.5,19.3c4.9,7.7,18.3,21,32.7,15.6C844.2,61.5,838.7,52.8,833,44
		c-5.2-8.1-10.6-16.4-22.4-21.8l-0.4-0.3c0.5-0.4,1.3-0.9,2.3-1.3c2.8-1.2,5.2-2.1,7.5-2.9c2.5-0.8,5.2-1.5,8.7-2
		c1.5-0.3,2.5-1.1,3.2-2.3c0.4-0.7,0.7-1.6,0.8-2.4c0.1-0.7,0-1.5,0-2.3c-0.3-1.7-1.2-3.4-2.6-4.4C826.9,2.6,823.1,0,819-2.7z"/>
	
		<linearGradient id="SVGID_7_" gradientUnits="userSpaceOnUse" x1="733.5842" y1="615.1541" x2="847.3724" y2="750.7614" gradientTransform="matrix(1 0 0 -1 0 560)">
		<stop  offset="0" style="stop-color:#000000"/>
		<stop  offset="1" style="stop-color:#3B3A39"/>
	</linearGradient>
	<path class="st11" d="M651-96.4c67.6-16.7,118.9-109.2,165.4-79.8C858.1-150,844.1-69.2,811.3-8c-18.3-12.3-39.4-26.1-56.1-27.1
		l0.8-1.1c1.5-2,4-4,7.3-5.6c2.9-1.3,6.4-2.4,10.3-2.8c7.9-0.8,9.4-11.3-0.3-13.6c-12.2-3-24.9-6.1-37.6-8.5
		C711.9-71,691-62,701.3-79.8c6.1-10.5,0.5-23.4-8.1-21.4C678.7-97.6,664.5-95.4,651-96.4z"/>
	
		<linearGradient id="SVGID_8_" gradientUnits="userSpaceOnUse" x1="504.3851" y1="-278.2767" x2="513.4933" y2="243.5334" gradientTransform="matrix(1 0 0 -1 0 560)">
		<stop  offset="0" style="stop-color:#6E6E6E"/>
		<stop  offset="1" style="stop-color:#3B3A39"/>
	</linearGradient>
	<path class="st12" d="M512.3,761.3c-27-57-149.2-155.5-199.9-200.9c-65-55.9-130-111.8-175.9-167.6c28.9,16.3,63.9,26.9,100.6,38
		c57.2,17.3,118.2,35.7,164.8,78.5c16.1,14.8,33.6,26.2,51.6,33.9c18.7,8.1,36,12.2,53.2,12.3v-0.1c1.2,0,2.4,0.1,3.6,0.1
		c0.5,0,1.1,0,1.7,0l0,0h0.1l0,0h0.1l0,0c0.5,0,1.1,0,1.7,0c1.2,0,2.4-0.1,3.6-0.1v0.1c17.2-0.3,34.5-4.4,53.2-12.3
		c18-7.7,35.3-19.1,51.6-33.9c46.6-42.8,107.6-61.3,164.8-78.5c36.7-11.1,71.7-21.7,100.6-38C842,448.6,776.9,504.4,711.9,560.4
		C661.3,604,539,704.7,512.3,761.3z"/>
	<path class="st13" d="M514.1,586.5c-0.5,0-1.1,0-1.7,0l0,0h-0.1l0,0l0,0l0,0h-0.1l0,0c-0.5,0-1.1,0-1.7,0
		c-17.7,0.4-35.5-3.4-54.1-11.5c-17.2-7.4-34-18.3-49.6-32.7c-47.6-43.8-109.6-62.5-167.4-80.1c-19.1-5.8-37.7-11.4-55.2-17.7
		c-17.2-17.2-33.2-34.4-47.4-51.6c28.9,16.3,63.9,26.9,100.6,38c57.2,17.3,118.2,35.7,164.8,78.5c16.1,14.8,33.6,26.2,51.6,33.9
		c18.7,8.1,36,12.2,53.2,12.3v-0.1c1.2,0,2.4,0.1,3.6,0.1c0.5,0,1.1,0,1.7,0l0,0h0.1l0,0h0.1l0,0c0.5,0,1.1,0,1.7,0
		c1.2,0,2.4-0.1,3.6-0.1v0.1c17.2-0.3,34.5-4.4,53.2-12.3c18-7.7,35.3-19.1,51.6-33.9c46.6-42.8,107.6-61.3,164.8-78.5
		c36.7-11.1,71.7-21.7,100.6-38c-14.2,17.2-30.2,34.4-47.4,51.6c-17.5,6.4-36.1,12-55.2,17.7c-57.8,17.5-119.8,36.3-167.4,80.1
		c-15.6,14.3-32.3,25.1-49.6,32.7C549.6,582.9,531.9,586.8,514.1,586.5z"/>
	
		<linearGradient id="SVGID_9_" gradientUnits="userSpaceOnUse" x1="510.7305" y1="223.0766" x2="518.4291" y2="-217.9759" gradientTransform="matrix(1 0 0 -1 0 560)">
		<stop  offset="0" style="stop-color:#B0B1B2"/>
		<stop  offset="1" style="stop-color:#FFFFFF"/>
	</linearGradient>
	<path class="st14" d="M512.3,721.1c-26.7-56.6-149-157.2-199.9-200.9c-39.3-33.8-78.6-67.6-113.7-101.4
		c12.4,4.1,25.3,7.9,38.4,11.9c57.2,17.3,118.2,35.7,164.8,78.5c16.1,14.8,33.6,26.2,51.6,33.9c18.7,8.1,36,12.2,53.2,12.3v-0.1
		c1.2,0,2.4,0.1,3.6,0.1c0.5,0,1.1,0,1.7,0l0,0h0.1l0,0h0.1l0,0c0.5,0,1.1,0,1.7,0c1.2,0,2.4-0.1,3.6-0.1v0.1
		c17.2-0.3,34.5-4.4,53.2-12.3c18-7.7,35.3-19.1,51.6-33.9c46.6-42.8,107.6-61.3,164.8-78.5c13.1-4,25.9-7.8,38.4-11.9
		c-35.1,33.8-74.4,67.5-113.7,101.4C661.3,563.9,539,664.6,512.3,721.1z"/>
	<path class="st15" d="M512.3,586.5L512.3,586.5c-20.5,0-37.1-3.4-56.1-11.5c-17.2-7.4-34-18.3-49.6-32.7
		c-44.9-41.2-102.3-60.2-157.2-76.9c-17.5-15.5-34.5-31.1-50.6-46.6c12.4,4.1,25.3,7.9,38.4,11.9c57.2,17.3,118.2,35.7,164.8,78.5
		c16.1,14.8,33.6,26.2,51.6,33.9c22.1,9.5,36.4,12.3,58.8,12.3l0,0c21.4,0,38.3-3.6,58.8-12.3c18-7.7,35.3-19.1,51.6-33.9
		c46.6-42.8,107.6-61.3,164.8-78.5c13.1-4,25.9-7.8,38.4-11.9c-16.1,15.5-33.1,31-50.6,46.6c-54.8,16.7-112.4,35.7-157.2,76.9
		c-15.6,14.3-32.3,25.1-49.6,32.7C549.4,583.1,532.8,586.5,512.3,586.5z"/>
	<path class="st16" d="M514.1,548.1c-20.6,0-38.9-3.3-58-11.5c-17.2-7.4-34-18.3-49.6-32.7c-47.6-43.8-109.6-62.5-167.4-80.1
		c-46.3-14-90.1-27.3-121.1-51.9c-35.3-37.6-61-81.5-60-126.9c-0.4-16.7,2.8-37.2,8.3-51.8c16.5,65.9,69.8,137.5,133.4,160.9
		c24.6,7.7,53.1,9.4,77,7.9c22-1.3,28.9-0.1,36,26.5c2,7.5,6,15.1,10.7,22.9c10.7,17.5,27.3,35.6,46.9,52.1
		c43.9,37.5,83.9,59.2,141.9,59.2l0,0c58,0,97.9-21.7,141.9-59.2c19.5-16.5,36-34.7,46.9-52.1c4.8-7.8,8.7-15.4,10.7-22.9
		c7.1-26.6,14-27.7,36-26.5c23.8,1.5,52.4-0.3,77-7.9c63.7-23.6,117-95,133.4-160.9c5.6,14.6,8.7,35.1,8.3,51.8
		c1.1,45.4-24.8,89.3-60,126.9c-31,24.6-74.8,37.9-121.1,51.9c-57.8,17.5-119.8,36.3-167.4,80.1c-15.6,14.3-32.3,25.3-49.6,32.7
		C549.6,544.5,531.9,548,514.1,548.1z"/>
	<path class="st6" d="M727,94.3c34.5,4.5,50.8,4.2,89.6,5.4c20.9,0.7,38.5,2.1,62.2,9.1c29.8,8.7,55.2,38,27.8,30.4
		c-15.9-4.4-37.3-13.4-33.8,12c-36.7,7.8-126.5-43.3-164.1-49C702.7,101.3,706.1,91.5,727,94.3L727,94.3z M297.6,94.3
		c-34.5,4.5-50.8,4.2-89.6,5.4c-20.9,0.7-38.5,2.1-62.2,9.1c-29.8,8.7-55.2,38-27.8,30.4c15.9-4.4,37.3-13.4,33.8,12
		c36.7,7.8,126.5-43.3,164.1-49C321.8,101.3,318.5,91.5,297.6,94.3L297.6,94.3z M412.6,317.6c-16.8,7.8-43,27-17.7,42.8
		c15.4,9.5,36.8,7.1,42.4-11.6c6.1-20.9,18.5-36.5,17.5-61.7C453.9,266.1,441.5,304.2,412.6,317.6L412.6,317.6z M467.7,34.8
		c-6-13.6-77.3,8.5-70.5,22.5c4.4,9,19.9,7.3,30.2,13.2c12.4,7.1,20,20.8,30.4,16.7C471.8,81.7,477.7,57.6,467.7,34.8L467.7,34.8z
		 M348.2,84.1c-9.1,12.8,27.3,18.7,28.7-1.3c0.8-10.3,10.5-16.1,4.9-18.8c-3.4-1.6-10.5,7-18.4,12.6C357,80.9,349.4,82.2,348.2,84.1
		L348.2,84.1z M612,317.6c16.8,7.8,43,27,17.7,42.8c-15.4,9.5-36.8,7.1-42.4-11.6c-6.1-20.9-18.5-36.5-17.5-61.7
		C570.7,266.1,583.1,304.2,612,317.6L612,317.6z M556.9,34.8c6-13.6,77.3,8.5,70.5,22.5c-4.4,9-20,7.3-30.2,13.2
		c-12.3,7.1-20,20.8-30.4,16.7C552.8,81.7,546.8,57.6,556.9,34.8L556.9,34.8z M676.4,84.1c9.1,12.8-27.3,18.7-28.7-1.3
		c-0.8-10.3-10.5-16.1-4.9-18.8c3.3-1.6,10.5,7,18.4,12.6C667.5,80.9,675.2,82.2,676.4,84.1z"/>
	<path class="st17" d="M514.1,498.2c-1.3,0-2.5,0-3.7,0c-32.2,0-58.1-12.8-58.1-8.2s26.1,21,58.1,21c1.2,0,2.5,0,3.7,0
		c32.2,0,58.1-16.5,58.1-21S546.3,498.2,514.1,498.2z"/>
	<path class="st16" d="M188.7,57.7c23-5.2,40.4-25,62.7-24.1c35.3,1.5-0.1-27,11.1-35.3c21.8-16.1,84.8-5.3,77.3-27.1
		c-12.8-37.5,53.1-19.2,30-42.4c-4.5-4.5,58-9.4,72.3-16.8c8.1-4.2,10.5-8.3-0.9-4.6c-13.8,4.5-43.3,3.8-66.6,1.9
		c-8.3,1.5-17.2,0.8-22.1,0.1c-11.6-1.3-32.7-8.7-23.4,7c15.8,27-24.9,21.3-39,24c-12.2,2.3-24.5,5.2-36.5,8.2
		c4.1,0.5,7.7,1.7,10.7,3.2c4.4,2.1,7.7,4.9,9.7,7.5c2.3,2.8,3.4,5.3,3.3,7.4c-0.3,3.2-2.4,5-7.1,5.3c-15.5,0.8-38.6,16.5-56.8,28.7
		c-4.6,3.2-9,6.1-13,8.6c2.4,0.5,4.4,1.1,6.4,1.6c2.8,0.9,5.3,1.9,8.2,3c2.1,0.9,4,2.1,5.3,3.4c1.1,1.2,1.7,2.4,1.9,3.8
		c0.3,1.6-0.1,3.2-1.3,4.6c-0.8,1.1-2,2-3.7,2.8C207,33.3,202.2,40.8,197.6,48C195.6,50.9,192.5,54.6,188.7,57.7L188.7,57.7z
		 M835.9,57.7c-23-5.2-40.4-25-62.7-24.1c-35.3,1.5,0.1-27-11.1-35.3c-21.8-16.1-84.8-5.3-77.3-27.1c12.8-37.5-53.1-19.2-30-42.4
		c4.5-4.5-58-9.4-72.3-16.8c-8.1-4.2-10.5-8.3,0.9-4.6c13.8,4.5,43.3,3.8,66.6,1.9c8.3,1.5,17.2,0.8,22.1,0.1
		c11.6-1.3,32.7-8.7,23.4,7c-15.8,27,24.9,21.3,39,24c12.2,2.3,24.5,5.2,36.5,8.2c-4.1,0.5-7.7,1.7-10.7,3.2
		c-4.4,2.1-7.7,4.9-9.7,7.5c-2.3,2.8-3.4,5.3-3.3,7.4c0.3,3.2,2.4,5,7.1,5.3c15.5,0.8,38.6,16.5,56.8,28.7c4.6,3.2,9,6.1,13,8.6
		c-2.4,0.5-4.4,1.1-6.4,1.6c-2.8,0.9-5.3,1.9-8.2,3c-2.1,0.9-4,2.1-5.3,3.4c-1.1,1.2-1.7,2.4-1.9,3.8c-0.3,1.6,0.1,3.2,1.3,4.6
		c0.8,1.1,2,2,3.7,2.8c10.1,4.6,14.8,12.2,19.5,19.3C829,50.9,832.1,54.6,835.9,57.7z"/>
	<path class="st1" d="M482.2-18.4c-16.8,2.9-29.1,13.6-29.5,18c-23,15.2-45,10.7-60.6,20.3c-9,5.4-31.2,15.5-38,24.1
		c-0.1,0.1-52.8,29.3-46.1,1.2c2.4-9.9,39-11.6,14.6-30.2c-6-4.5,14.4-18,44.3-18.5c47.5-0.8,67.4-2.9,70.5-27
		c0.8-5.7,57-31.9,44.1-12.4c-4.8,7-8.6,14.6,5.6,13.1C502.5-31.6,496.8-20.9,482.2-18.4L482.2-18.4z M542.3-18.4
		c16.8,2.9,29.1,13.6,29.5,18c23,15.2,45,10.7,60.6,20.3c9,5.4,31.2,15.5,38,24.1c0.1,0.1,52.8,29.3,46.1,1.2
		c-2.4-9.9-39-11.6-14.6-30.2c6-4.5-14.4-18-44.3-18.5c-47.5-0.8-67.4-2.9-70.5-27c-0.8-5.7-57-31.9-44.1-12.4
		c4.8,7,8.6,14.6-5.6,13.1C522.1-31.6,527.8-20.9,542.3-18.4z"/>
	<g>
		<g>
			<g>
				<path d="M678.7,202.1c4.2-11.9,4.5-26.5-1.1-42.6c8.7-2.9,18.7-4.6,29.9-5c-38.4-9.3-63.9,13.4-87.9,36.9
					c-18.5,18.5-39.7,30.8-60.5,18.4c9.3,12.6,27.3,14.4,36.4,10.2c13.5,10.3,27.7,14.4,40.5,13.8c9.7-0.5,18.7-3.7,25.9-9.3
					C669.5,219.2,675.4,211.5,678.7,202.1z"/>
				
					<linearGradient id="SVGID_10_" gradientUnits="userSpaceOnUse" x1="638.9516" y1="290.476" x2="638.9516" y2="449.8191" gradientTransform="matrix(1 0 0 -1 0 560)">
					<stop  offset="0" style="stop-color:#431908"/>
					<stop  offset="1" style="stop-color:#000000"/>
				</linearGradient>
				<path class="st18" d="M612.7,208.1c2.5-2.3,5-4.8,7.7-7.3c2.9,4.9,7.9,8.6,13.8,9.7c10.1,1.9,19.1-4.9,20.1-15.1
					c0.7-7.1-2.8-14.2-8.6-18.3c2.8-2.3,5.7-4.4,8.7-6.4c7.3,6.6,11.5,16.4,10.6,26.5c-1.6,16.1-15.8,26.9-31.9,24
					C624.8,219.7,617.5,214.7,612.7,208.1z"/>
				<path class="st16" d="M613.4,235.4c-2.8-0.9-5.7,0.7-6.6,3.4c-0.9,2.8,0.7,5.8,3.3,6.8c15.4,5.2,31.5,5,46.2-0.7
					c14-5.4,27-15.6,36.8-30.8c1.6-2.5,0.9-5.8-1.5-7.4c-2.4-1.6-5.7-0.9-7.3,1.5c-8.5,13.2-19.6,22.1-31.6,26.7
					C640.3,239.6,626.5,239.7,613.4,235.4z"/>
				<path class="st6" d="M627,210.2c2.5,0,4.6,2,4.8,4.4s-1.7,4.4-4.1,4.4c-2.5,0-4.6-2-4.8-4.4C622.7,212.1,624.5,210.2,627,210.2
					L627,210.2z M655.5,174.7c5.2,0,9.8,4.1,10.1,9.3c0.4,5-3.6,9.3-8.7,9.3c-5.2,0-9.8-4.1-10.1-9.3
					C646.4,178.8,650.3,174.7,655.5,174.7z"/>
			</g>
			<path class="st19" d="M678.4,151.2c6.9-0.7,10.1-12-7.7-10.5c-30.3,2.5-64.6,58.5-100.5,60.9C607.3,211.5,639.1,155,678.4,151.2z
				"/>
		</g>
		<g>
			<g>
				<path d="M345.9,202.1c-4.2-11.9-4.5-26.5,1.1-42.6c-8.7-2.9-18.7-4.6-29.9-5c38.4-9.3,63.9,13.4,87.9,36.9
					c18.5,18.5,39.7,30.8,60.5,18.4c-9.3,12.6-27.3,14.4-36.4,10.2c-13.5,10.3-27.7,14.4-40.5,13.8c-9.7-0.5-18.7-3.7-25.9-9.3
					C355.1,219.2,349.2,211.5,345.9,202.1z"/>
				
					<linearGradient id="SVGID_11_" gradientUnits="userSpaceOnUse" x1="384.2235" y1="278.1" x2="386.9888" y2="436.525" gradientTransform="matrix(1 0 0 -1 0 560)">
					<stop  offset="0" style="stop-color:#431908"/>
					<stop  offset="1" style="stop-color:#000000"/>
				</linearGradient>
				<path class="st20" d="M411.8,208.1c-2.5-2.3-5-4.8-7.7-7.3c-2.9,4.9-7.9,8.6-13.8,9.7c-10.1,1.9-19.1-4.9-20.1-15.1
					c-0.7-7.1,2.8-14.2,8.6-18.3c-2.8-2.3-5.7-4.4-8.7-6.4c-7.3,6.6-11.5,16.4-10.6,26.5c1.6,16.1,15.8,26.9,31.9,24
					C399.8,219.7,407.1,214.7,411.8,208.1z"/>
				<path class="st16" d="M411.2,235.4c2.8-0.9,5.7,0.7,6.6,3.4s-0.7,5.8-3.3,6.8c-15.4,5.2-31.5,5-46.2-0.7
					c-14-5.4-27-15.6-36.8-30.8c-1.6-2.5-0.9-5.8,1.5-7.4c2.4-1.6,5.7-0.9,7.3,1.5c8.5,13.2,19.6,22.1,31.6,26.7
					C384.3,239.6,398.1,239.7,411.2,235.4z"/>
				<path class="st6" d="M397.5,210.2c-2.5,0-4.6,2-4.8,4.4c-0.1,2.4,1.7,4.4,4.1,4.4c2.5,0,4.6-2,4.8-4.4
					C401.9,212.1,400.1,210.2,397.5,210.2L397.5,210.2z M369.1,174.7c-5.2,0-9.8,4.1-10.1,9.3c-0.4,5,3.6,9.3,8.7,9.3
					c5.2,0,9.8-4.1,10.1-9.3C378.2,178.8,374.2,174.7,369.1,174.7z"/>
			</g>
			<path class="st19" d="M346.2,151.2c-6.9-0.7-10.1-12,7.7-10.5c30.3,2.5,64.6,58.5,100.5,60.9C417.3,211.5,385.5,155,346.2,151.2z
				"/>
		</g>
	</g>
	<path class="st6" d="M407.9,420.1c3.8,0.9,2.8,4.8-0.5,4c-79.5-20.5-187.8-20.9-264.6,0C216,397,331.2,400.7,407.9,420.1
		L407.9,420.1z M616.7,420.1c-3.8,0.9-2.8,4.8,0.5,4c79.5-20.5,187.8-20.9,264.6,0C808.6,397,693.4,400.7,616.7,420.1L616.7,420.1z
		 M623.9,411.1c65.4-29,167.4-49.9,236.4-37.1c-71.3-6.9-167.6,10.1-235.3,40.5C622.1,415.8,620.6,412.6,623.9,411.1L623.9,411.1z
		 M610.9,429.3c78.8-5.6,193,11.1,260.6,50.6c-72.3-34-178.9-52.7-260.7-46.6C607.5,433.5,606.9,429.5,610.9,429.3L610.9,429.3z
		 M639.2,399c44.1-34.8,117.3-70.8,171.8-74.8c-55.2,9-124.7,40.8-170.3,77.2C638.8,402.8,637.1,400.7,639.2,399L639.2,399z
		 M603.4,436.4c-3.2-0.4-3.3,2.8-0.7,3c64.9,6.6,146.1,36.1,198.3,72.9C753.2,472,665.8,443,603.4,436.4L603.4,436.4z M400.7,411.1
		c-65.4-29-167.4-49.9-236.4-37.1c71.3-6.9,167.6,10.1,235.3,40.5C402.4,415.8,404,412.6,400.7,411.1L400.7,411.1z M413.7,429.3
		c-78.8-5.6-193,11.1-260.6,50.6c72.3-34,178.9-52.7,260.7-46.6C417.1,433.5,417.7,429.5,413.7,429.3L413.7,429.3z M385.4,399
		c-44.1-34.8-117.3-70.8-171.8-74.8c55.2,9,124.8,40.8,170.3,77.2C385.8,402.8,387.5,400.7,385.4,399L385.4,399z M421.2,436.4
		c3.2-0.4,3.3,2.8,0.7,3c-64.9,6.6-146.1,36.1-198.3,72.9C271.4,472,358.8,443,421.2,436.4z"/>
</g>
</svg>
