<?xml version="1.0" encoding="utf-8"?>
<!-- Generator: Adobe Illustrator 19.0.0, SVG Export Plug-In . SVG Version: 6.00 Build 0)  -->
<svg version="1.1" id="Layer_1" xmlns="http://www.w3.org/2000/svg" xmlns:xlink="http://www.w3.org/1999/xlink" x="0px" y="0px"
	 viewBox="-271 217.5 415.4 126.5" style="enable-background:new -271 217.5 415.4 126.5;" xml:space="preserve">
<style type="text/css">
	.st0{fill:#222222;}
	.st1{fill:#C43527;}
</style>
<g id="XMLID_24_">
	<path id="XMLID_25_" class="st0" d="M-254.2,230.7v8.8h22.5v12.7h-22.5v16.5H-271V218h40.8v12.7H-254.2z"/>
	<path id="XMLID_27_" class="st0" d="M-202.3,255.6h-6.3v13.2h-16.8V218h24.5c13.7,0,21.6,6.6,21.6,18.2c0,7.4-2.8,12.9-8,16.1
		l10,16.5h-19L-202.3,255.6z M-200.8,242.8c3.6,0,5.7-2.2,5.7-6.1c0-3.8-2.1-5.9-5.7-5.9h-7.7v12.1L-200.8,242.8L-200.8,242.8z"/>
	<path id="XMLID_30_" class="st0" d="M-119.7,243.3c0,15-11.7,26.1-27.9,26.1c-16.1,0-27.9-11-27.9-26.1c0-15,11.7-25.8,27.9-25.8
		C-131.5,217.5-119.7,228.4-119.7,243.3z M-158.2,243.4c0,6.9,5.1,12.1,10.9,12.1c5.8,0,10.4-5.1,10.4-12.1s-4.7-11.9-10.5-11.9
		C-153.2,231.5-158.2,236.5-158.2,243.4z"/>
	<path id="XMLID_33_" class="st0" d="M-79.8,268.7l-20-25.9v25.9H-115V218h14l20,26v-26h15.2v50.7H-79.8z"/>
	<path id="XMLID_35_" class="st0" d="M-30.6,231.2v37.5h-16.8v-37.5h-14.4V218h45.6v13.2H-30.6z"/>
	<path id="XMLID_37_" class="st0" d="M4.6,230.7v6.2h23.7v12.7H4.6v6.3h26.8v12.7h-43.5V218h42.9v12.7H4.6z"/>
	<path id="XMLID_39_" class="st0" d="M73,268.7l-20-25.9v25.9H37.7V218h14l20,26v-26H87v50.7H73z"/>
	<path id="XMLID_41_" class="st0" d="M116.9,218c16.7,0,27.6,9.9,27.6,25.3s-11.1,25.4-28.2,25.4h-22V218H116.9z M111,255.7h6.3
		c6.1,0,10-4.8,10-12.2c0-7.5-4.3-12.4-10.8-12.4H111V255.7z"/>
</g>
<g id="XMLID_5_">
	<path id="XMLID_6_" class="st1" d="M-244.9,328.5h-7v14.7h-18.7v-56.5h27.3c15.3,0,24.1,7.3,24.1,20.2c0,8.2-3.1,14.3-8.9,17.9
		l11.1,18.4h-21.1L-244.9,328.5z M-243.3,314.3c4,0,6.4-2.5,6.4-6.9c0-4.2-2.3-6.6-6.4-6.6h-8.6v13.5H-243.3z"/>
	<path id="XMLID_9_" class="st1" d="M-194.9,335.2l-2.9,8H-217l23.9-56.5h19.2l23,56.5h-19.9l-2.8-8H-194.9z M-184.1,305.3l-6,16.5
		h11.8L-184.1,305.3z"/>
	<path id="XMLID_12_" class="st1" d="M-97.7,296.4l-10.8,12.8c-3.4-4.6-8.5-7.6-12.8-7.6c-6.8,0-11.7,5.4-11.7,12.9
		c0,7.6,4.9,13.1,11.7,13.1c4,0,9.1-2.5,12.8-6.4l10.8,11.5c-6.3,6.9-15.9,11.3-24.6,11.3c-17.3,0-29.9-12.3-29.9-29.2
		c0-16.6,12.9-28.7,30.6-28.7C-112.9,286.1-103.5,290.1-97.7,296.4z"/>
	<path id="XMLID_14_" class="st1" d="M-43,296.4l-10.8,12.8c-3.4-4.6-8.5-7.6-12.8-7.6c-6.8,0-11.7,5.4-11.7,12.9
		c0,7.6,4.9,13.1,11.7,13.1c4,0,9.1-2.5,12.8-6.4l10.8,11.5c-6.3,6.9-15.9,11.3-24.6,11.3c-17.3,0-29.9-12.3-29.9-29.2
		c0-16.6,12.9-28.7,30.6-28.7C-58.2,286.1-48.8,290.1-43,296.4z"/>
	<path id="XMLID_16_" class="st1" d="M19.2,314.9c0,16.8-13.1,29.1-31,29.1s-31-12.3-31-29.1c0-16.8,13.1-28.8,31-28.8
		S19.2,298.2,19.2,314.9z M-23.7,314.9c0,7.7,5.6,13.5,12.1,13.5c6.5,0,11.6-5.7,11.6-13.5c0-7.8-5.2-13.3-11.6-13.3
		C-18.1,301.6-23.7,307.2-23.7,314.9z"/>
	<path id="XMLID_19_" class="st1" d="M83.7,314.9c0,16.8-13.1,29.1-31,29.1s-31-12.3-31-29.1c0-16.8,13.1-28.8,31-28.8
		S83.7,298.2,83.7,314.9z M40.8,314.9c0,7.7,5.6,13.5,12.1,13.5c6.4,0,11.6-5.7,11.6-13.5c0-7.8-5.2-13.3-11.6-13.3
		C46.4,301.6,40.8,307.2,40.8,314.9z"/>
	<path id="XMLID_22_" class="st1" d="M128.2,343.2L106,314.3v28.9H89v-56.5h15.6l22.3,29v-29h16.9v56.5H128.2z"/>
</g>
</svg>
