<?xml version="1.0" encoding="utf-8"?>
<!-- Generator: Adobe Illustrator 19.0.0, SVG Export Plug-In . SVG Version: 6.00 Build 0)  -->
<svg version="1.1" id="Layer_1" xmlns="http://www.w3.org/2000/svg" xmlns:xlink="http://www.w3.org/1999/xlink" x="0px" y="0px"
	 viewBox="0 0 1000 1000" style="enable-background:new 0 0 1000 1000;" xml:space="preserve">
<style type="text/css">
	.st0{fill-rule:evenodd;clip-rule:evenodd;}
	.st1{fill-rule:evenodd;clip-rule:evenodd;fill:#D8D9D9;}
	.st2{fill-rule:evenodd;clip-rule:evenodd;fill:#6E6E6E;}
	.st3{fill-rule:evenodd;clip-rule:evenodd;fill:#9B9B9B;}
	.st4{fill-rule:evenodd;clip-rule:evenodd;fill:url(#SVGID_1_);}
	.st5{fill-rule:evenodd;clip-rule:evenodd;fill:url(#SVGID_2_);}
	.st6{fill-rule:evenodd;clip-rule:evenodd;fill:url(#SVGID_3_);}
	.st7{fill-rule:evenodd;clip-rule:evenodd;fill:#FFFFFF;}
	.st8{fill-rule:evenodd;clip-rule:evenodd;fill:url(#SVGID_4_);}
	.st9{fill-rule:evenodd;clip-rule:evenodd;fill:#B0B1B2;}
	.st10{fill-rule:evenodd;clip-rule:evenodd;fill:url(#SVGID_5_);}
	.st11{fill-rule:evenodd;clip-rule:evenodd;fill:url(#SVGID_6_);}
	.st12{fill-rule:evenodd;clip-rule:evenodd;fill:url(#SVGID_7_);}
	.st13{fill-rule:evenodd;clip-rule:evenodd;fill:url(#SVGID_8_);}
	.st14{fill-rule:evenodd;clip-rule:evenodd;fill:#1A1A18;}
	.st15{fill-rule:evenodd;clip-rule:evenodd;fill:url(#SVGID_9_);}
	.st16{fill-rule:evenodd;clip-rule:evenodd;fill:#868685;}
	.st17{fill-rule:evenodd;clip-rule:evenodd;fill:#3B3A39;}
	.st18{fill-rule:evenodd;clip-rule:evenodd;fill:#C5C5C6;}
	.st19{fill-rule:evenodd;clip-rule:evenodd;fill:url(#SVGID_10_);}
	.st20{fill-rule:evenodd;clip-rule:evenodd;fill:#575656;}
	.st21{fill-rule:evenodd;clip-rule:evenodd;fill:url(#SVGID_11_);}
</style>
<g>
	<path class="st0" d="M452.7,199.2c-17.5,1.6-34.4,4.2-51.9,7.1c-32.2,5.2-78.3-90.6-136.6-67.2c-47,18.8-52,81.1-26.1,143.7
		c7.3,17.6,6.1,28.3-2,37.2c-28.9,32.1-54.3,70.5-72,104.4c-34.3,65.8-4.3,118.9,41.8,172c42.5,48.8,98.3,98.7,138.1,133
		c38.5,33.1,137.3,115.8,156,159.7c18.7-43.9,117.5-126.6,156-159.7c39.8-34.2,95.7-84.1,138.1-133c46.1-53.1,76.1-106.2,41.8-172
		c-17.7-33.9-43.1-72.3-72-104.4c-8.1-9-9.3-19.6-2-37.2c25.9-62.6,20.8-124.9-26.1-143.7c-58.3-23.4-104.4,72.5-136.6,67.2
		c-17.5-2.8-34.4-5.5-51.9-7.1C515.3,196.3,484.7,196.3,452.7,199.2z"/>
	<path class="st1" d="M498.6,689.1c-32.4,0-64.8-11.1-102.4-43.2c-14.3-12.2-26.4-25.4-34.3-38.1c-7.6-12.3-11.1-24.1-8.5-33.7
		c1.4-5,4.4-9.5,9.4-13.3c14.2-8.9,25.7-21.6,37.3-34.5c10.8-11.9,21.7-24,35-33.2c5.7-4,10.4-5.3,14.2-4.8c3.2,0.5,5.8,2.4,7.8,5.3
		c2.2,3.1,3.7,7.3,4.7,12.1c8.2,42.4-30.5,81.1-30.5,111.5c0,4.2,1.1,8.1,2.9,11.8c-0.2,1.6-0.3,3.2-0.3,4.8c0,0.4,0,0.9,0,1.3
		c-7.5-4.4-14.6-9.5-20.8-14.9c-1.8-1.8-3.6-3.6-5.7-5.2c-1.7-1.7-3.4-3.4-5-5.2c-10.5-11.8-24.1-32.7-9.5-46.6
		c-19.1,10.3-4.8,38.7,5.6,50.3c3.9,4.3,7.9,8.3,12.2,12.1c8.8,7.6,17.5,14,26.1,19.4c0.6,1.2,1.3,2.3,2.1,3.4
		c3.4,4.7,8.3,9,14.1,12.6c7.1,4.5,14.4,7.7,21.8,9.8c7.8,2.3,15.8,3.3,23.7,3.3c0.4,0,0.8,0,1.3,0v0l0.1,0h0l0.1,0v0
		c0.4,0,0.8,0,1.3,0c7.9,0,15.9-1.1,23.7-3.3c7.4-2.1,14.8-5.4,21.8-9.8c5.7-3.6,10.6-7.9,14.1-12.6c0.8-1.1,1.5-2.2,2.1-3.4
		c8.6-5.4,17.3-11.8,26.1-19.4c4.2-3.7,8.3-7.7,12.2-12.1c10.4-11.6,24.7-39.9,5.6-50.3c14.7,13.9,1.1,34.8-9.5,46.6
		c-1.6,1.7-3.2,3.5-5,5.2c-2,1.7-3.9,3.4-5.7,5.2c-6.2,5.4-13.3,10.5-20.8,14.9c0-0.4,0-0.9,0-1.3c0-1.6-0.1-3.2-0.3-4.8
		c1.9-3.7,2.9-7.6,2.9-11.8c0-30.4-38.7-69.1-30.5-111.5c0.9-4.7,2.5-8.9,4.7-12.1c2-2.9,4.6-4.8,7.8-5.3c3.7-0.5,8.4,0.8,14.2,4.8
		c13.3,9.2,24.2,21.3,35,33.2c11.7,12.9,23.1,25.6,37.3,34.5c5,3.8,8.1,8.3,9.4,13.3c2.6,9.6-0.9,21.4-8.5,33.7
		c-7.8,12.7-20,25.9-34.3,38.1c-37.7,32.1-70,43.2-102.4,43.2c-0.5,0-0.9,0-1.4,0h0C499.5,689.1,499.1,689.1,498.6,689.1z"/>
	<path class="st2" d="M432.6,606.9c-0.8,3.5-1.3,7-1.3,10.3c0,4.2,1,8.1,2.9,11.8c-0.2,1.6-0.3,3.2-0.3,4.8c0,0.4,0,0.9,0,1.3
		c-7.5-4.4-14.6-9.5-20.8-14.9c-1.8-1.8-3.6-3.6-5.7-5.2c-1.7-1.7-3.4-3.4-5-5.2c-7-7.9-15.5-19.8-15.9-31.1
		C396.6,594.8,412.7,603.6,432.6,606.9L432.6,606.9z M567.4,606.9c0.8,3.5,1.3,7,1.3,10.3c0,4.2-1,8.1-2.9,11.8
		c0.2,1.6,0.3,3.2,0.3,4.8c0,0.4,0,0.9,0,1.3c7.5-4.4,14.6-9.5,20.8-14.9c1.8-1.8,3.6-3.6,5.7-5.2c1.7-1.7,3.4-3.4,5-5.2
		c7-7.9,15.5-19.8,15.9-31.1C603.4,594.8,587.3,603.6,567.4,606.9z"/>
	<path class="st3" d="M396.1,645.9c-14.3-12.2-26.4-25.4-34.3-38.1c-2.4-3.8-4.3-7.6-5.8-11.3c9.7,12.4,19.1,8.8,28.2-11.3
		c2,10.6,8.8,21.9,14.4,28.2c3.9,4.3,7.9,8.3,12.2,12.1c8.8,7.6,17.4,14,26,19.4c0.6,1.2,1.3,2.3,2.1,3.4c3.4,4.7,8.3,9,14.1,12.6
		c7.1,4.5,14.4,7.7,21.8,9.8c8.9,2.6,16.1,3.2,25.1,3.3c8.5,0.1,17-1,25.1-3.3c7.4-2.1,14.8-5.4,21.8-9.8
		c5.7-3.6,10.6-7.9,14.1-12.6c0.8-1.1,1.5-2.3,2.1-3.4c8.6-5.4,17.3-11.8,26-19.4c4.2-3.7,8.3-7.7,12.2-12.1
		c5.6-6.3,12.5-17.6,14.4-28.2c9,20.1,18.4,23.7,28.2,11.3c-1.5,3.7-3.5,7.4-5.8,11.3c-7.8,12.7-20,25.9-34.3,38.1
		c-30.6,26.1-63.4,43.4-103.9,43.2C458.9,688.9,427.2,672.4,396.1,645.9z"/>
	<linearGradient id="SVGID_1_" gradientUnits="userSpaceOnUse" x1="499.4066" y1="667.6982" x2="500.8711" y2="583.7988">
		<stop  offset="0" style="stop-color:#000000"/>
		<stop  offset="1" style="stop-color:#3B3A39"/>
	</linearGradient>
	<path class="st4" d="M454.4,658.6c-10.4-6.6-17.9-15.1-17.9-24.8c0-4.2,0.8-8.7,2.2-13.1c0,0.5,0,1.1,0,1.6
		c0,12.7,5.1,24.3,15.3,31.7c8.5,6.1,22.2,5.9,20.7-7.6c-1.1-9.9-7.2-25.6-19.2-16.6c-0.8,0.6-1.7,1.2-2.3,1.7
		c-1.6-4.6-2.2-10.2-2.3-15.6c-0.4-27,27.1-37,49.1-36.8c22,0.2,49.5,9.3,49.1,36.8c-0.1,5.5-0.7,11-2.3,15.6
		c-0.7-0.4-1.5-1-2.3-1.7c-12-9-18.1,6.7-19.2,16.6c-1.5,13.5,12.2,13.7,20.7,7.6c10.2-7.4,15.3-19,15.3-31.7c0-0.5,0-1.1,0-1.6
		c1.4,4.5,2.2,8.9,2.2,13.1c0,9.7-7.5,18.3-17.9,24.8c-13.9,8.7-29.3,12.9-45.6,12.7C483.3,671.2,468.7,667.6,454.4,658.6z"/>
	<linearGradient id="SVGID_2_" gradientUnits="userSpaceOnUse" x1="493.7597" y1="21.873" x2="501.9456" y2="490.8435">
		<stop  offset="0" style="stop-color:#868685"/>
		<stop  offset="1" style="stop-color:#575656"/>
	</linearGradient>
	<path class="st5" d="M453.1,204.6c-17.3,1.5-30.2,3.3-47.5,6.4c-14.5,2.6,2.9,8.3,6.5,9.9c-38.6,4.8-95.8-97.6-145.9-74.9
		c-46.7,21.2-37.7,90-19.1,132.9c10.4,24,9.5,39.8-0.8,51.3c1.4-25.5-43.4,41.8-48.5,49.1c32.6-12.8,68.3-14.2,101-15.5
		c34.2-1.4,65.1-2.6,84.9-16.7c31.9-22.6,54.2-32.9,69.4-34.8c17.1-2.7,30.1-11.8,46.9-12.2c16.8-0.4,31.4,9.7,46.9,12.2
		c15.2,1.9,37.6,12.1,69.4,34.8c19.9,14.1,50.7,15.3,84.9,16.7c32.7,1.3,68.4,2.7,101,15.5c-5.1-7.3-49.9-74.6-48.5-49.1
		c-10.3-11.5-11.2-27.4-0.8-51.3c18.6-42.9,27.6-111.7-19.1-132.9c-50.1-22.7-107.3,79.7-145.9,74.9c3.5-1.5,21-7.2,6.5-9.9
		c-17.3-3.1-30.2-4.9-47.5-6.4C515.9,201.9,484.1,201.9,453.1,204.6z"/>
	<linearGradient id="SVGID_3_" gradientUnits="userSpaceOnUse" x1="500" y1="-4814.0732" x2="500" y2="6159.5889">
		<stop  offset="0" style="stop-color:#ECECEC"/>
		<stop  offset="1" style="stop-color:#9B9B9B"/>
	</linearGradient>
	<path class="st6" d="M453.1,204.6c-17.3,1.5-30.2,3.3-47.5,6.4c-10.7,1.9-4.1,5.5,1.6,7.9c-2.5-3.1,2.4-6,8.6-7.3
		c27.2-5.4,55.8-7,83.8-7l0,0h0.8l0,0c28.1,0,56.6,1.6,83.8,7c6.3,1.3,11.1,4.3,8.6,7.3c5.7-2.4,12.4-6,1.7-7.9
		c-17.3-3.1-30.2-4.9-47.5-6.4C515.9,201.9,484.1,201.9,453.1,204.6L453.1,204.6z M410,221c-3.4,1.2-6.8,2-10.4,2.4
		c-39.5-6.9-90-84.4-127.7-65.8c-49.6,24.5-21.2,108-3.6,139.9l-4,2.8c-1.6,1-3,2-4.4,2.8c-1.1,0.7-1.8,1.9-2,3.3
		c-0.1,0.6-0.1,1.2,0,1.7c0,0.4,0.1,0.7,0.2,1.1c-1.2,0.9-2.6,1.4-3.8,1.5c0.5-8.7-1.8-19-7.3-31.7C228.5,236,219.4,167.2,266.2,146
		C315.3,123.7,371.4,222.1,410,221L410,221z M745.7,310.8c-1.3,0-2.8-0.2-4.1-0.9c0.3-0.5,0.5-1.2,0.6-1.8c0.1-0.5,0-1.1,0-1.7
		c-0.2-1.3-0.9-2.6-2-3.3c-2.4-1.5-5.3-3.4-8.4-5.5c17.6-31.8,46.1-115.5-3.5-140c-37.4-18.5-87.3,57.5-126.7,65.6
		c-3.9-0.3-7.8-1.1-11.5-2.2c38.6,1.2,94.6-97.3,143.9-75c46.7,21.2,37.7,90,19.1,132.9C747.4,291.7,745.1,302.1,745.7,310.8z"/>
	<path class="st7" d="M232.8,225.3c2.8,9.7,6.7-3.8,8.4-20.2c3-30.6,14.3-43.1,26.2-51.1c21.6-14.6,60.3,11.7,87.3,32.7
		C326,161.2,294.9,133,266.2,146C236.4,159.5,229.3,192.2,232.8,225.3L232.8,225.3z M767.2,225.3c-2.8,9.7-6.7-3.8-8.4-20.2
		c-3-30.6-14.3-43.1-26.2-51.1c-21.6-14.6-60.3,11.7-87.3,32.7c28.6-25.5,59.7-53.7,88.4-40.6C763.6,159.5,770.7,192.2,767.2,225.3z
		"/>
	<path class="st7" d="M468.5,646.3c0.1,0.3,0.2,0.6,0.2,1c0.9,8.3-8.1,5.7-12.5,2.5c-9.9-7.1-13.5-18-12.9-29.5
		c0.5,9.9,4.3,19.1,12.9,25.4C460,648.3,467,650.6,468.5,646.3L468.5,646.3z M531.5,646.3c-0.1,0.3-0.2,0.6-0.2,1
		c-0.9,8.3,8.1,5.7,12.5,2.5c9.9-7.1,13.5-18,12.9-29.5c-0.5,9.9-4.3,19.1-12.9,25.4C540,648.3,533,650.6,531.5,646.3L531.5,646.3z
		 M501.4,619c-0.4,0-0.9,0-1.3,0v0l-0.1,0h0l-0.1,0v0c-0.4,0-0.8,0-1.3,0c-22.3,0-40.4-7.3-40.4-4.3c0,2.9,18.1,13.6,40.4,13.6
		c0.5,0,0.9,0,1.4,0h0c0.5,0,0.9,0,1.4,0c22.3,0,40.4-10.7,40.4-13.6C541.8,611.7,523.7,619,501.4,619z"/>
	<path class="st0" d="M317.1,274.2c0,0,0-0.1-0.1-0.1C317.1,274.3,317.1,274.5,317.1,274.2z"/>
	<path class="st0" d="M359.2,246.2c0.1,0-0.1,0-0.2,0l0.1,0L359.2,246.2z"/>
	<polygon class="st0" points="359.4,230.6 359.4,230.6 359.4,230.6 	"/>
	<path class="st0" d="M268.3,297.7c-17.6-31.8-46.1-115.5,3.5-140c40.9-20.2,96.9,72.6,137.5,65.9c-6,9.7-23.1,8.5-30.1,7.7
		c-8.8-1-24.7-6.6-17.7,5.3c11.9,20.4-18.8,16.1-29.5,18.1c-9.2,1.7-18.5,3.9-27.6,6.2c3.1,0.4,5.8,1.3,8.1,2.4
		c3.3,1.6,5.8,3.7,7.3,5.7c1.7,2.1,2.6,4,2.5,5.6c-0.2,2.4-1.8,3.8-5.4,4c-11.7,0.6-29.2,12.5-42.9,21.7c-3.5,2.4-6.8,4.6-9.8,6.5
		c1.8,0.4,3.3,0.8,4.8,1.2c2.1,0.7,4,1.4,6.2,2.3c1.6,0.7,3,1.6,4,2.6c0.8,0.9,1.3,1.8,1.4,2.9c0.2,1.2-0.1,2.4-1,3.5
		c-0.6,0.8-1.5,1.5-2.8,2.1c-7.6,3.5-11.2,9.2-14.7,14.6c-3.7,5.8-13.8,15.9-24.7,11.8c11.8-1.6,16-8.1,20.3-14.8
		c3.9-6.1,8-12.4,16.9-16.5l0.3-0.2c-0.4-0.3-1-0.7-1.7-1c-2.1-0.9-3.9-1.6-5.7-2.2c-1.9-0.6-3.9-1.1-6.6-1.5
		c-1.1-0.2-1.9-0.8-2.4-1.7c-0.3-0.5-0.5-1.2-0.6-1.8c-0.1-0.5,0-1.1,0-1.7c0.2-1.3,0.9-2.6,2-3.3
		C262.3,301.7,265.2,299.8,268.3,297.7z"/>
	<linearGradient id="SVGID_4_" gradientUnits="userSpaceOnUse" x1="356.6637" y1="287.5258" x2="273.2175" y2="184.4783">
		<stop  offset="0" style="stop-color:#000000"/>
		<stop  offset="1" style="stop-color:#3B3A39"/>
	</linearGradient>
	<path class="st8" d="M395.2,226.9c-51.1-12.6-89.8-82.5-125-60.3c-31.5,19.8-20.9,80.9,3.9,127.1c13.8-9.3,29.8-19.7,42.4-20.5
		l-0.6-0.8c-1.1-1.5-3-3-5.5-4.2c-2.2-1-4.8-1.8-7.8-2.1c-6-0.6-7.1-8.5,0.2-10.3c9.2-2.3,18.8-4.6,28.4-6.4c18-3.3,33.8,3.5,26-9.9
		c-4.6-7.9-0.4-17.7,6.1-16.2C374.3,226,385,227.7,395.2,226.9z"/>
	<path class="st1" d="M477.1,333.7L477.1,333.7l0-0.2c-2.4-10.9-9.2-17.4-23.4-15.7c-14.4,1.8-36,11.8-67,33.8
		c-21.1,15-52.7,16.2-87.7,17.6c-60.6,2.4-104.4,10.8-119.9,40.8c-11.9,23.2-9.5,63.3,32.6,110.9c8.2,9.3,8.4,5.1,8.9-2.6
		c0.8-12.1,6.7-26.3,19.3-43c18.4-24.3,42.5-44.2,71.6-57.9c27.7-13.1,59.9-20.6,96.1-21.3c11.1-0.2,8.4-8.3,6-17.6
		c-0.9-3.7-2.3-7.3-4-11.1c-6.5-13.7,1.9-16.1,11.7-5.9c6.8,7.1,12.1,15.1,16.8,24.1c4.6,8.9,8.6,18.8,13,29.9
		c4.6,11.6,5,13,9.6,1.2c8.6-21.8,17.7-51,17.5-72.4C478.2,340.5,477.8,336.9,477.1,333.7L477.1,333.7z M522.9,333.7L522.9,333.7
		l0-0.2c2.4-10.9,9.2-17.4,23.4-15.7c14.4,1.8,36,11.8,67,33.8c21.1,15,52.7,16.2,87.7,17.6c60.6,2.4,104.4,10.8,119.9,40.8
		c11.9,23.2,9.5,63.3-32.6,110.9c-8.2,9.3-8.4,5.1-8.9-2.6c-0.8-12.1-6.7-26.3-19.3-43c-18.4-24.3-42.5-44.2-71.6-57.9
		c-27.7-13.1-59.9-20.6-96.1-21.3c-11.1-0.2-8.4-8.3-6-17.6c0.9-3.7,2.3-7.3,4-11.1c6.5-13.7-1.9-16.1-11.7-5.9
		c-6.8,7.1-12.1,15.1-16.8,24.1c-4.6,8.9-8.6,18.8-13,29.9c-4.6,11.6-5,13-9.6,1.2c-8.6-21.8-17.7-51-17.5-72.4
		C521.8,340.5,522.2,336.9,522.9,333.7z"/>
	<path class="st9" d="M173,432.9c10.9,29.1,28,56.1,51.5,68.8c-2.3,6-3.6,11.5-3.9,16.7c-0.5,7.6-0.6,11.9-8.9,2.6
		C181.1,486.5,171.5,456,173,432.9L173,432.9z M827,432.9c-10.9,29.1-28,56.1-51.5,68.8c2.3,6,3.6,11.5,3.9,16.7
		c0.5,7.6,0.6,11.9,8.9,2.6C818.9,486.5,828.5,456,827,432.9z"/>
	<linearGradient id="SVGID_5_" gradientUnits="userSpaceOnUse" x1="500.0004" y1="303.0088" x2="500.0004" y2="606.3011">
		<stop  offset="0" style="stop-color:#3B3A39"/>
		<stop  offset="1" style="stop-color:#000000"/>
	</linearGradient>
	<path class="st10" d="M517.7,333.1c-0.7,3.5-1.1,7.2-1.1,11.3c-0.2,22.2,9.1,52.2,17.9,74.5c6.9,17.4,13.2,14.2,19.4-1.2
		c4.3-10.9,8.3-20.6,12.8-29.3c4.4-8.6,9.4-16.2,15.8-22.8c2.8-2.9,6.5-7,3.3-0.3c-1.9,4-3.3,8-4.4,12.1c-3.1,12.3-5,24.1,11,24.4
		c35.4,0.7,67,8,94,20.8c28.3,13.4,51.8,32.6,69.7,56.3c11.9,15.7,17.4,29,18.1,40c0.8,11.1-3.2,20.1-10.2,27.1
		c-7.2,7.3-17.7,12.6-29.4,16.3c-25.5,8-56.8,7.9-75.5,2.6c-23.2-6.7-39.1-24.2-55.3-42.1c-11-12.1-22.1-24.4-35.9-34
		c-17.1-11.9-30.7-4.9-34.7,16c-9,37.7,20.8,72.3,20.6,89.3c-0.1,5.9-9.1-10.2-22.6-16.7c-10.5-5.1-51.7-5.1-62.2,0
		c-13.5,6.5-22.5,22.6-22.6,16.7c-0.2-17,29.6-51.6,20.6-89.3c-4-20.9-17.6-27.9-34.7-16c-13.8,9.6-24.9,21.9-35.9,34
		c-16.3,18-32.1,35.5-55.3,42.1c-18.7,5.4-50,5.4-75.5-2.6c-11.8-3.7-22.2-9-29.4-16.3c-7-7.1-11-16-10.2-27.1
		c0.8-11.1,6.3-24.3,18.1-40c17.9-23.7,41.3-42.9,69.7-56.3c27.1-12.8,58.6-20.1,94-20.8c16.1-0.3,14.1-12.2,11-24.4
		c-1-4.1-2.5-8.1-4.4-12.1c-3.2-6.8,0.5-2.6,3.3,0.3c6.4,6.7,11.4,14.3,15.8,22.8c4.5,8.7,8.5,18.5,12.8,29.3
		c6.1,15.4,12.5,18.6,19.4,1.2c8.8-22.3,18.1-52.2,17.9-74.5c0-4-0.4-7.8-1.1-11.3c0.3-12.9,4.2-27.4,17.7-27.4
		C513.5,305.7,517.4,320.2,517.7,333.1z"/>
	<linearGradient id="SVGID_6_" gradientUnits="userSpaceOnUse" x1="499.1704" y1="641.2227" x2="505.3618" y2="286.5169">
		<stop  offset="0" style="stop-color:#6E6E6E"/>
		<stop  offset="1" style="stop-color:#1A1A18"/>
	</linearGradient>
	<path class="st11" d="M535.1,497.3c-0.8,2.2-1.5,4.6-2,7.3c-9,37.7,20.8,72.3,20.6,89.3c-0.1,5.9-9.1-10.2-22.6-16.7
		c-10.5-5.1-51.7-5.1-62.2,0c-13.5,6.5-22.5,22.6-22.6,16.7c-0.2-17,29.6-51.6,20.6-89.3c-0.4-2.2-1-4.3-1.6-6.3
		c3.3-82.5,18.9-167.1,34.7-167.1C515.6,331.2,531.2,414.8,535.1,497.3z"/>
	<path class="st0" d="M682.9,274.2c0,0,0-0.1,0.1-0.1C682.9,274.3,682.9,274.5,682.9,274.2z"/>
	<path class="st0" d="M640.8,246.2c-0.1,0,0.1,0,0.2,0l-0.1,0L640.8,246.2z"/>
	<polygon class="st0" points="640.6,230.6 640.6,230.6 640.6,230.6 	"/>
	<path class="st0" d="M731.7,297.7c17.6-31.8,46.1-115.5-3.5-140c-40.9-20.2-96.8,72.6-137.5,65.9c6,9.7,23.1,8.5,30.1,7.7
		c8.8-1,24.7-6.6,17.7,5.3c-11.9,20.4,18.8,16.1,29.5,18.1c9.2,1.7,18.5,3.9,27.6,6.2c-3.1,0.4-5.8,1.3-8.1,2.4
		c-3.3,1.6-5.8,3.7-7.3,5.7c-1.7,2.1-2.6,4-2.5,5.6c0.2,2.4,1.8,3.8,5.4,4c11.7,0.6,29.2,12.5,42.9,21.7c3.5,2.4,6.8,4.6,9.8,6.5
		c-1.8,0.4-3.3,0.8-4.8,1.2c-2.1,0.7-4,1.4-6.2,2.3c-1.6,0.7-3,1.6-4,2.6c-0.8,0.9-1.3,1.8-1.4,2.9c-0.2,1.2,0.1,2.4,1,3.5
		c0.6,0.8,1.5,1.5,2.8,2.1c7.6,3.5,11.2,9.2,14.7,14.6c3.7,5.8,13.8,15.9,24.7,11.8c-11.8-1.6-16-8.1-20.3-14.8
		c-3.9-6.1-8-12.4-16.9-16.5l-0.3-0.2c0.4-0.3,1-0.7,1.7-1c2.1-0.9,3.9-1.6,5.7-2.2c1.9-0.6,3.9-1.1,6.6-1.5
		c1.1-0.2,1.9-0.8,2.4-1.7c0.3-0.5,0.5-1.2,0.6-1.8c0.1-0.5,0-1.1,0-1.7c-0.2-1.3-0.9-2.6-2-3.3
		C737.7,301.7,734.8,299.8,731.7,297.7z"/>
	<linearGradient id="SVGID_7_" gradientUnits="userSpaceOnUse" x1="667.217" y1="258.1145" x2="753.1898" y2="155.6562">
		<stop  offset="0" style="stop-color:#000000"/>
		<stop  offset="1" style="stop-color:#3B3A39"/>
	</linearGradient>
	<path class="st12" d="M604.8,226.9c51.1-12.6,89.8-82.5,125-60.3c31.5,19.8,20.9,80.9-3.9,127.1c-13.8-9.3-29.8-19.7-42.4-20.5
		l0.6-0.8c1.1-1.5,3-3,5.5-4.2c2.2-1,4.8-1.8,7.8-2.1c6-0.6,7.1-8.5-0.2-10.3c-9.2-2.3-18.8-4.6-28.4-6.4c-18-3.3-33.8,3.5-26-9.9
		c4.6-7.9,0.4-17.7-6.1-16.2C625.7,226,615,227.7,604.8,226.9z"/>
	<linearGradient id="SVGID_8_" gradientUnits="userSpaceOnUse" x1="494.1254" y1="933.1328" x2="501.0071" y2="538.8785">
		<stop  offset="0" style="stop-color:#6E6E6E"/>
		<stop  offset="1" style="stop-color:#3B3A39"/>
	</linearGradient>
	<path class="st13" d="M500,875c-20.4-43.1-112.7-117.5-151-151.8c-49.1-42.2-98.2-84.5-132.9-126.6c21.8,12.3,48.3,20.3,76,28.7
		c43.2,13.1,89.3,27,124.5,59.3c12.2,11.2,25.4,19.8,39,25.6c14.1,6.1,27.2,9.2,40.2,9.3v-0.1c0.9,0,1.8,0.1,2.7,0.1
		c0.4,0,0.8,0,1.3,0v0l0.1,0h0l0.1,0v0c0.4,0,0.8,0,1.3,0c0.9,0,1.8-0.1,2.7-0.1v0.1c13-0.2,26.1-3.3,40.2-9.3
		c13.6-5.8,26.7-14.4,39-25.6c35.2-32.3,81.3-46.3,124.5-59.3c27.7-8.4,54.2-16.4,76-28.7c-34.6,42.1-83.8,84.3-132.9,126.6
		C612.6,756.1,520.2,832.2,500,875z"/>
	<path class="st14" d="M501.4,742.9c-0.4,0-0.8,0-1.3,0l0,0H500h0h0h0h-0.1l0,0c-0.4,0-0.8,0-1.3,0c-13.4,0.3-26.8-2.6-40.9-8.7
		c-13-5.6-25.7-13.8-37.5-24.7c-36-33.1-82.8-47.2-126.5-60.5c-14.4-4.4-28.5-8.6-41.7-13.4c-13-13-25.1-26-35.8-39
		c21.8,12.3,48.3,20.3,76,28.7c43.2,13.1,89.3,27,124.5,59.3c12.2,11.2,25.4,19.8,39,25.6c14.1,6.1,27.2,9.2,40.2,9.3v-0.1
		c0.9,0,1.8,0.1,2.7,0.1c0.4,0,0.8,0,1.3,0v0l0.1,0h0l0.1,0v0c0.4,0,0.8,0,1.3,0c0.9,0,1.8-0.1,2.7-0.1v0.1
		c13-0.2,26.1-3.3,40.2-9.3c13.6-5.8,26.7-14.4,39-25.6c35.2-32.3,81.3-46.3,124.5-59.3c27.7-8.4,54.2-16.4,76-28.7
		c-10.7,13-22.8,26-35.8,39c-13.2,4.8-27.3,9.1-41.7,13.4c-43.7,13.2-90.5,27.4-126.5,60.5c-11.8,10.8-24.4,19-37.5,24.7
		C528.2,740.2,514.8,743.1,501.4,742.9z"/>
	<linearGradient id="SVGID_9_" gradientUnits="userSpaceOnUse" x1="498.9202" y1="554.3311" x2="504.7369" y2="887.569">
		<stop  offset="0" style="stop-color:#B0B1B2"/>
		<stop  offset="1" style="stop-color:#FFFFFF"/>
	</linearGradient>
	<path class="st15" d="M500,844.6c-20.2-42.8-112.6-118.8-151-151.8c-29.7-25.5-59.4-51.1-85.9-76.6c9.4,3.1,19.1,6,29,9
		c43.2,13.1,89.3,27,124.5,59.3c12.2,11.2,25.4,19.8,39,25.6c14.1,6.1,27.2,9.2,40.2,9.3v-0.1c0.9,0,1.8,0.1,2.7,0.1
		c0.4,0,0.8,0,1.3,0v0l0.1,0h0l0.1,0v0c0.4,0,0.8,0,1.3,0c0.9,0,1.8-0.1,2.7-0.1v0.1c13-0.2,26.1-3.3,40.2-9.3
		c13.6-5.8,26.7-14.4,39-25.6c35.2-32.3,81.3-46.3,124.5-59.3c9.9-3,19.6-5.9,29-9c-26.5,25.5-56.2,51-85.9,76.6
		C612.6,725.8,520.2,801.9,500,844.6z"/>
	<path class="st16" d="M500,742.9L500,742.9c-15.5,0-28-2.6-42.4-8.7c-13-5.6-25.7-13.8-37.5-24.7c-33.9-31.1-77.3-45.5-118.8-58.1
		c-13.2-11.7-26.1-23.5-38.2-35.2c9.4,3.1,19.1,6,29,9c43.2,13.1,89.3,27,124.5,59.3c12.2,11.2,25.4,19.8,39,25.6
		c16.7,7.2,27.5,9.3,44.4,9.3h0c16.2,0,28.9-2.7,44.4-9.3c13.6-5.8,26.7-14.4,39-25.6c35.2-32.3,81.3-46.3,124.5-59.3
		c9.9-3,19.6-5.9,29-9c-12.2,11.7-25,23.4-38.2,35.2c-41.4,12.6-84.9,27-118.8,58.1c-11.8,10.8-24.4,19-37.5,24.7
		C528,740.3,515.5,742.9,500,742.9z"/>
	<path class="st17" d="M501.4,713.9c-15.6,0-29.4-2.5-43.8-8.7c-13-5.6-25.7-13.8-37.5-24.7c-36-33.1-82.8-47.2-126.5-60.5
		c-35-10.6-68.1-20.6-91.5-39.2c-26.7-28.4-46.1-61.6-45.3-95.9c-0.3-12.6,2.1-28.1,6.3-39.1c12.5,49.8,52.7,103.9,100.8,121.6
		c18.6,5.8,40.1,7.1,58.2,6c16.6-1,21.8-0.1,27.2,20c1.5,5.7,4.5,11.4,8.1,17.3c8.1,13.2,20.6,26.9,35.4,39.4
		c33.2,28.3,63.4,44.7,107.2,44.7h0c43.8,0,74-16.4,107.2-44.7c14.7-12.5,27.2-26.2,35.4-39.4c3.6-5.9,6.6-11.6,8.1-17.3
		c5.4-20.1,10.6-20.9,27.2-20c18,1.1,39.6-0.2,58.2-6c48.1-17.8,88.4-71.8,100.8-121.6c4.2,11,6.6,26.5,6.3,39.1
		c0.8,34.3-18.7,67.5-45.3,95.9c-23.4,18.6-56.5,28.6-91.5,39.2c-43.7,13.2-90.5,27.4-126.5,60.5c-11.8,10.8-24.4,19.1-37.5,24.7
		C528.2,711.2,514.8,713.8,501.4,713.9z"/>
	<path class="st7" d="M662.2,371c26.1,3.4,38.4,3.2,67.7,4.1c15.8,0.5,29.1,1.6,47,6.9c22.5,6.6,41.7,28.7,21,23
		c-12-3.3-28.2-10.1-25.5,9.1c-27.7,5.9-95.6-32.7-124-37C643.9,376.3,646.4,368.9,662.2,371L662.2,371z M337.8,371
		c-26.1,3.4-38.4,3.2-67.7,4.1c-15.8,0.5-29.1,1.6-47,6.9c-22.5,6.6-41.7,28.7-21,23c12-3.3,28.2-10.1,25.5,9.1
		c27.7,5.9,95.6-32.7,124-37C356.1,376.3,353.6,368.9,337.8,371L337.8,371z M424.7,539.7c-12.7,5.9-32.5,20.4-13.4,32.3
		c11.6,7.2,27.8,5.4,32-8.8c4.6-15.8,14-27.6,13.2-46.6C455.9,500.8,446.5,529.6,424.7,539.7L424.7,539.7z M466.3,326.1
		c-4.5-10.3-58.4,6.4-53.3,17c3.3,6.8,15,5.5,22.8,10c9.4,5.4,15.1,15.7,23,12.6C469.4,361.5,473.9,343.3,466.3,326.1L466.3,326.1z
		 M376,363.3c-6.9,9.7,20.6,14.1,21.7-1c0.6-7.8,7.9-12.2,3.7-14.2c-2.6-1.2-7.9,5.3-13.9,9.5C382.7,360.9,376.9,361.9,376,363.3
		L376,363.3z M575.3,539.7c12.7,5.9,32.5,20.4,13.4,32.3c-11.6,7.2-27.8,5.4-32-8.8c-4.6-15.8-14-27.6-13.2-46.6
		C544.1,500.8,553.5,529.6,575.3,539.7L575.3,539.7z M533.7,326.1c4.5-10.3,58.4,6.4,53.3,17c-3.3,6.8-15.1,5.5-22.8,10
		c-9.3,5.4-15.1,15.7-23,12.6C530.6,361.5,526.1,343.3,533.7,326.1L533.7,326.1z M624,363.3c6.9,9.7-20.6,14.1-21.7-1
		c-0.6-7.8-7.9-12.2-3.7-14.2c2.5-1.2,7.9,5.3,13.9,9.5C617.3,360.9,623.1,361.9,624,363.3z"/>
	<path class="st18" d="M501.4,676.2c-1,0-1.9,0-2.8,0c-24.3,0-43.9-9.7-43.9-6.2s19.7,15.9,43.9,15.9c0.9,0,1.9,0,2.8,0
		c24.3,0,43.9-12.5,43.9-15.9S525.7,676.2,501.4,676.2z"/>
	<path class="st17" d="M255.5,343.4c17.4-3.9,30.5-18.9,47.4-18.2c26.7,1.1-0.1-20.4,8.4-26.7c16.5-12.2,64.1-4,58.4-20.5
		c-9.7-28.3,40.1-14.5,22.7-32c-3.4-3.4,43.8-7.1,54.6-12.7c6.1-3.2,7.9-6.3-0.7-3.5c-10.4,3.4-32.7,2.9-50.3,1.4
		c-6.3,1.1-13,0.6-16.7,0.1c-8.8-1-24.7-6.6-17.7,5.3c11.9,20.4-18.8,16.1-29.5,18.1c-9.2,1.7-18.5,3.9-27.6,6.2
		c3.1,0.4,5.8,1.3,8.1,2.4c3.3,1.6,5.8,3.7,7.3,5.7c1.7,2.1,2.6,4,2.5,5.6c-0.2,2.4-1.8,3.8-5.4,4c-11.7,0.6-29.2,12.5-42.9,21.7
		c-3.5,2.4-6.8,4.6-9.8,6.5c1.8,0.4,3.3,0.8,4.8,1.2c2.1,0.7,4,1.4,6.2,2.3c1.6,0.7,3,1.6,4,2.6c0.8,0.9,1.3,1.8,1.4,2.9
		c0.2,1.2-0.1,2.4-1,3.5c-0.6,0.8-1.5,1.5-2.8,2.1c-7.6,3.5-11.2,9.2-14.7,14.6C260.7,338.2,258.4,341,255.5,343.4L255.5,343.4z
		 M744.5,343.4c-17.4-3.9-30.5-18.9-47.4-18.2c-26.7,1.1,0.1-20.4-8.4-26.7c-16.5-12.2-64.1-4-58.4-20.5c9.7-28.3-40.1-14.5-22.7-32
		c3.4-3.4-43.8-7.1-54.6-12.7c-6.1-3.2-7.9-6.3,0.7-3.5c10.4,3.4,32.7,2.9,50.3,1.4c6.3,1.1,13,0.6,16.7,0.1
		c8.8-1,24.7-6.6,17.7,5.3c-11.9,20.4,18.8,16.1,29.5,18.1c9.2,1.7,18.5,3.9,27.6,6.2c-3.1,0.4-5.8,1.3-8.1,2.4
		c-3.3,1.6-5.8,3.7-7.3,5.7c-1.7,2.1-2.6,4-2.5,5.6c0.2,2.4,1.8,3.8,5.4,4c11.7,0.6,29.2,12.5,42.9,21.7c3.5,2.4,6.8,4.6,9.8,6.5
		c-1.8,0.4-3.3,0.8-4.8,1.2c-2.1,0.7-4,1.4-6.2,2.3c-1.6,0.7-3,1.6-4,2.6c-0.8,0.9-1.3,1.8-1.4,2.9c-0.2,1.2,0.1,2.4,1,3.5
		c0.6,0.8,1.5,1.5,2.8,2.1c7.6,3.5,11.2,9.2,14.7,14.6C739.3,338.2,741.6,341,744.5,343.4z"/>
	<path class="st2" d="M477.3,285.9c-12.7,2.2-22,10.3-22.3,13.6c-17.4,11.5-34,8.1-45.8,15.3c-6.8,4.1-23.6,11.7-28.7,18.2
		c-0.1,0.1-39.9,22.1-34.8,0.9c1.8-7.5,29.5-8.8,11-22.8c-4.5-3.4,10.9-13.6,33.5-14c35.9-0.6,50.9-2.2,53.3-20.4
		c0.6-4.3,43.1-24.1,33.3-9.4c-3.6,5.3-6.5,11,4.2,9.9C492.6,275.9,488.3,284,477.3,285.9L477.3,285.9z M522.7,285.9
		c12.7,2.2,22,10.3,22.3,13.6c17.4,11.5,34,8.1,45.8,15.3c6.8,4.1,23.6,11.7,28.7,18.2c0.1,0.1,39.9,22.1,34.8,0.9
		c-1.8-7.5-29.5-8.8-11-22.8c4.5-3.4-10.9-13.6-33.5-14c-35.9-0.6-50.9-2.2-53.3-20.4c-0.6-4.3-43.1-24.1-33.3-9.4
		c3.6,5.3,6.5,11-4.2,9.9C507.4,275.9,511.7,284,522.7,285.9z"/>
	<g>
		<g>
			<g>
				<path class="st0" d="M625.7,452.5c3.2-9,3.4-20-0.8-32.2c6.6-2.2,14.1-3.5,22.6-3.8c-29-7-48.3,10.1-66.4,27.9
					c-14,14-30,23.3-45.7,13.9c7,9.5,20.6,10.9,27.5,7.7c10.2,7.8,20.9,10.9,30.6,10.4c7.3-0.4,14.1-2.8,19.6-7
					C618.8,465.4,623.2,459.6,625.7,452.5z"/>
				<linearGradient id="SVGID_10_" gradientUnits="userSpaceOnUse" x1="595.7" y1="503.4092" x2="595.7" y2="383.0173">
					<stop  offset="0" style="stop-color:#431908"/>
					<stop  offset="1" style="stop-color:#000000"/>
				</linearGradient>
				<path class="st19" d="M575.9,457c1.9-1.7,3.8-3.6,5.8-5.5c2.2,3.7,6,6.5,10.4,7.3c7.6,1.4,14.4-3.7,15.2-11.4
					c0.5-5.4-2.1-10.7-6.5-13.8c2.1-1.7,4.3-3.3,6.6-4.8c5.5,5,8.7,12.4,8,20c-1.2,12.2-11.9,20.3-24.1,18.1
					C585,465.8,579.5,462,575.9,457z"/>
				<path class="st17" d="M576.4,477.6c-2.1-0.7-4.3,0.5-5,2.6c-0.7,2.1,0.5,4.4,2.5,5.1c11.6,3.9,23.8,3.8,34.9-0.5
					c10.6-4.1,20.4-11.8,27.8-23.3c1.2-1.9,0.7-4.4-1.1-5.6c-1.8-1.2-4.3-0.7-5.5,1.1c-6.4,10-14.8,16.7-23.9,20.2
					C596.7,480.8,586.3,480.9,576.4,477.6z"/>
				<path class="st7" d="M586.7,458.6c1.9,0,3.5,1.5,3.6,3.3s-1.3,3.3-3.1,3.3c-1.9,0-3.5-1.5-3.6-3.3
					C583.4,460,584.8,458.6,586.7,458.6L586.7,458.6z M608.2,431.8c3.9,0,7.4,3.1,7.6,7c0.3,3.8-2.7,7-6.6,7c-3.9,0-7.4-3.1-7.6-7
					C601.3,434.9,604.3,431.8,608.2,431.8z"/>
			</g>
			<path class="st20" d="M625.5,414c5.2-0.5,7.6-9.1-5.8-7.9c-22.9,1.9-48.8,44.2-75.9,46C571.8,459.6,595.8,416.9,625.5,414z"/>
		</g>
		<g>
			<g>
				<path class="st0" d="M374.3,452.5c-3.2-9-3.4-20,0.8-32.2c-6.6-2.2-14.1-3.5-22.6-3.8c29-7,48.3,10.1,66.4,27.9
					c14,14,30,23.3,45.7,13.9c-7,9.5-20.6,10.9-27.5,7.7c-10.2,7.8-20.9,10.9-30.6,10.4c-7.3-0.4-14.1-2.8-19.6-7
					C381.2,465.4,376.8,459.6,374.3,452.5z"/>
				<linearGradient id="SVGID_11_" gradientUnits="userSpaceOnUse" x1="403.234" y1="512.7598" x2="405.3233" y2="393.0616">
					<stop  offset="0" style="stop-color:#431908"/>
					<stop  offset="1" style="stop-color:#000000"/>
				</linearGradient>
				<path class="st21" d="M424.1,457c-1.9-1.7-3.8-3.6-5.8-5.5c-2.2,3.7-6,6.5-10.4,7.3c-7.6,1.4-14.4-3.7-15.2-11.4
					c-0.5-5.4,2.1-10.7,6.5-13.8c-2.1-1.7-4.3-3.3-6.6-4.8c-5.5,5-8.7,12.4-8,20c1.2,12.2,11.9,20.3,24.1,18.1
					C415,465.8,420.5,462,424.1,457z"/>
				<path class="st17" d="M423.6,477.6c2.1-0.7,4.3,0.5,5,2.6c0.7,2.1-0.5,4.4-2.5,5.1c-11.6,3.9-23.8,3.8-34.9-0.5
					c-10.6-4.1-20.4-11.8-27.8-23.3c-1.2-1.9-0.7-4.4,1.1-5.6c1.8-1.2,4.3-0.7,5.5,1.1c6.4,10,14.8,16.7,23.9,20.2
					C403.3,480.8,413.7,480.9,423.6,477.6z"/>
				<path class="st7" d="M413.3,458.6c-1.9,0-3.5,1.5-3.6,3.3c-0.1,1.8,1.3,3.3,3.1,3.3c1.9,0,3.5-1.5,3.6-3.3
					C416.6,460,415.2,458.6,413.3,458.6L413.3,458.6z M391.8,431.8c-3.9,0-7.4,3.1-7.6,7c-0.3,3.8,2.7,7,6.6,7c3.9,0,7.4-3.1,7.6-7
					C398.7,434.9,395.7,431.8,391.8,431.8z"/>
			</g>
			<path class="st20" d="M374.5,414c-5.2-0.5-7.6-9.1,5.8-7.9c22.9,1.9,48.8,44.2,75.9,46C428.2,459.6,404.2,416.9,374.5,414z"/>
		</g>
	</g>
	<path class="st7" d="M421.1,617.2c2.9,0.7,2.1,3.6-0.4,3c-60.1-15.5-141.9-15.8-199.9,0C276.1,599.7,363.2,602.5,421.1,617.2
		L421.1,617.2z M578.9,617.2c-2.9,0.7-2.1,3.6,0.4,3c60.1-15.5,141.9-15.8,199.9,0C723.9,599.7,636.8,602.5,578.9,617.2L578.9,617.2
		z M584.3,610.4c49.4-21.9,126.5-37.7,178.6-28c-53.9-5.2-126.6,7.6-177.8,30.6C583,613.9,581.8,611.5,584.3,610.4L584.3,610.4z
		 M574.5,624.1c59.5-4.2,145.8,8.4,196.9,38.2c-54.6-25.7-135.2-39.8-197-35.2C571.9,627.3,571.5,624.3,574.5,624.1L574.5,624.1z
		 M595.9,601.2c33.3-26.3,88.6-53.5,129.8-56.5C684,551.5,631.5,575.5,597,603C595.6,604.1,594.3,602.5,595.9,601.2L595.9,601.2z
		 M568.8,629.5c-2.4-0.3-2.5,2.1-0.5,2.3c49,5,110.4,27.3,149.8,55.1C682,656.4,616,634.5,568.8,629.5L568.8,629.5z M415.7,610.4
		c-49.4-21.9-126.5-37.7-178.6-28c53.9-5.2,126.6,7.6,177.8,30.6C417,613.9,418.2,611.5,415.7,610.4L415.7,610.4z M425.5,624.1
		c-59.5-4.2-145.8,8.4-196.9,38.2c54.6-25.7,135.2-39.8,197-35.2C428.1,627.3,428.5,624.3,425.5,624.1L425.5,624.1z M404.1,601.2
		c-33.3-26.3-88.6-53.5-129.8-56.5c41.7,6.8,94.3,30.8,128.7,58.3C404.4,604.1,405.7,602.5,404.1,601.2L404.1,601.2z M431.2,629.5
		c2.4-0.3,2.5,2.1,0.5,2.3c-49,5-110.4,27.3-149.8,55.1C318,656.4,384,634.5,431.2,629.5z"/>
</g>
</svg>
